<svg width="40" height="40" viewBox="0 0 40 40" fill="none" xmlns="http://www.w3.org/2000/svg">
<rect width="40" height="40" rx="20" fill="#EAECF0"/>
<g clip-path="url(#clip0_21312_3696)">
<path d="M22.6948 7.99219C22.7458 7.992 22.7969 7.99181 22.8495 7.99161C23.0139 7.99116 23.1783 7.99116 23.3428 7.99127C23.4264 7.99125 23.4264 7.99125 23.5117 7.99122C25.3419 7.99195 25.3419 7.99195 26.2344 8.14069C26.2344 9.40913 26.2344 10.6776 26.2344 11.9844C25.1504 12.0049 25.1504 12.0049 24.8125 12.0111C23.4483 11.9784 23.4483 11.9784 22.291 12.5938C21.9766 12.9768 21.9187 13.515 21.9123 13.9932C21.9118 14.0239 21.9113 14.0546 21.9108 14.0862C21.9094 14.1844 21.9082 14.2826 21.907 14.3807C21.9057 14.4715 21.9057 14.4715 21.9044 14.564C21.9012 14.7891 21.8984 15.0142 21.8955 15.2393C21.8887 15.743 21.882 16.2467 21.875 16.7657C23.2672 16.7657 24.6594 16.7657 26.0938 16.7657C26.0399 17.5196 26.0399 17.5196 25.9985 17.8321C25.9939 17.8684 25.9892 17.9047 25.9844 17.9421C25.9697 18.0567 25.9547 18.1713 25.9398 18.2858C25.9305 18.3578 25.9212 18.4297 25.912 18.5016C25.878 18.7648 25.8438 19.0279 25.8096 19.2911C25.7332 19.8808 25.6568 20.4706 25.5781 21.0782C24.3561 21.0782 23.1341 21.0782 21.875 21.0782C21.875 24.6824 21.875 28.2866 21.875 32.0001C20.4055 32.0001 18.9359 32.0001 17.4219 32.0001C17.4219 28.3958 17.4219 24.7916 17.4219 21.0782C16.2153 21.0782 15.0087 21.0782 13.7656 21.0782C13.7656 19.6551 13.7656 18.2319 13.7656 16.7657C14.9722 16.7657 16.1788 16.7657 17.4219 16.7657C17.4182 15.6509 17.4182 15.6509 17.4134 14.5361C17.4084 12.7836 17.5054 11.0133 18.7344 9.64069C18.7718 9.59881 18.8093 9.55694 18.8479 9.5138C19.8483 8.45567 21.2626 7.99387 22.6948 7.99219Z" fill="#344054"/>
</g>
<defs>
<clipPath id="clip0_21312_3696">
<rect width="24" height="24" fill="white" transform="translate(8 8)"/>
</clipPath>
</defs>
</svg>
