<svg width="40" height="40" viewBox="0 0 40 40" fill="none" xmlns="http://www.w3.org/2000/svg">
<rect width="40" height="40" rx="20" fill="#EAECF0"/>
<path d="M28.0435 17.3765C29.1621 18.3312 29.4856 19.7869 29.5995 21.1916C29.6188 21.5211 29.6155 21.8509 29.6147 22.1808C29.6147 22.2621 29.6147 22.3435 29.6147 22.4249C29.6147 22.6441 29.6145 22.8633 29.6141 23.0825C29.6138 23.3123 29.6138 23.542 29.6138 23.7717C29.6136 24.206 29.6132 24.6402 29.6128 25.0745C29.6121 25.6619 29.6119 26.2492 29.6116 26.8366C29.6112 27.7609 29.6102 28.6853 29.6094 29.6096C28.2791 29.6096 26.9487 29.6096 25.5781 29.6096C25.5764 29.0808 25.5746 28.552 25.5728 28.0072C25.5714 27.6712 25.5699 27.3352 25.5683 26.9992C25.5658 26.4664 25.5634 25.9337 25.5619 25.4009C25.5608 25.0128 25.5592 24.6247 25.5571 24.2366C25.556 24.0314 25.5551 23.8262 25.5548 23.621C25.5545 23.4272 25.5536 23.2334 25.5521 23.0396C25.5517 22.9691 25.5516 22.8986 25.5516 22.8282C25.5523 21.9748 25.4727 21.0676 24.8486 20.4281C24.437 20.0686 23.9307 19.9789 23.3946 20.0092C23.0198 20.0394 22.6709 20.0837 22.3438 20.2815C22.2964 20.3076 22.249 20.3337 22.2002 20.3606C21.6027 20.831 21.3653 21.4832 21.2757 22.2219C21.2528 22.4984 21.2571 22.7763 21.256 23.0535C21.2556 23.1251 21.2551 23.1968 21.2546 23.2684C21.2533 23.462 21.2523 23.6556 21.2514 23.8491C21.2504 24.0518 21.2491 24.2544 21.2478 24.457C21.2455 24.8403 21.2434 25.2237 21.2414 25.607C21.2386 26.1252 21.2355 26.6435 21.2324 27.1617C21.2276 27.9777 21.2232 28.7936 21.2188 29.6096C19.8884 29.6096 18.5581 29.6096 17.1875 29.6096C17.1875 25.3712 17.1875 21.1327 17.1875 16.7658C18.4559 16.7658 19.7244 16.7658 21.0312 16.7658C21.0467 17.3073 21.0622 17.8487 21.0781 18.4065C21.1864 18.2518 21.2947 18.0971 21.4062 17.9377C22.1034 17.0454 23.176 16.5903 24.2805 16.4524C25.5909 16.3412 26.9862 16.5501 28.0435 17.3765Z" fill="#344054"/>
<path d="M10.6719 16.7656C12.0022 16.7656 13.3325 16.7656 14.7031 16.7656C14.7031 21.0041 14.7031 25.2425 14.7031 29.6094C13.3728 29.6094 12.0425 29.6094 10.6719 29.6094C10.6719 25.3709 10.6719 21.1325 10.6719 16.7656Z" fill="#344054"/>
<path d="M13.988 10.7244C14.524 11.0909 14.8527 11.5931 15.0073 12.2194C15.1216 12.8952 14.9855 13.5246 14.6091 14.0935C14.2564 14.5769 13.7483 14.9215 13.1559 15.031C12.6545 15.0795 12.1571 15.0837 11.7028 14.8435C11.6425 14.8129 11.6425 14.8129 11.5811 14.7816C11.0222 14.4731 10.64 13.9926 10.4401 13.3845C10.2838 12.7095 10.3719 12.0605 10.7067 11.4568C11.0382 10.9397 11.5172 10.6024 12.1029 10.423C12.7625 10.2906 13.4056 10.3836 13.988 10.7244Z" fill="#344054"/>
</svg>
