<svg width="40" height="40" viewBox="0 0 40 40" fill="none" xmlns="http://www.w3.org/2000/svg">
<rect width="40" height="40" rx="20" fill="#EAECF0"/>
<g clip-path="url(#clip0_21312_3702)">
<path d="M8.23438 7.99968C9.14831 7.98213 10.0622 7.96892 10.9763 7.96082C11.4007 7.95696 11.8251 7.9517 12.2495 7.9431C12.6196 7.93561 12.9896 7.93078 13.3597 7.92911C13.5556 7.92814 13.7513 7.92586 13.9471 7.92038C15.1378 7.88832 15.1378 7.88832 15.4275 8.07298C15.6025 8.24369 15.7056 8.43424 15.7922 8.661C15.8421 8.78403 15.9148 8.88522 15.9937 8.99138C16.04 9.05925 16.0864 9.12712 16.1328 9.19499C16.3847 9.56334 16.6372 9.93122 16.8902 10.2988C16.9971 10.4543 17.104 10.6098 17.2109 10.7653C17.2539 10.8278 17.2969 10.8903 17.3398 10.9528C20.1758 15.0778 20.1758 15.0778 20.2403 15.1717C20.283 15.2338 20.3258 15.296 20.3685 15.3581C20.4795 15.5196 20.5905 15.6811 20.7013 15.8426C20.7242 15.876 20.747 15.9093 20.7706 15.9436C20.8139 16.0067 20.8572 16.0698 20.9004 16.133C21.0355 16.3298 21.1732 16.5245 21.3125 16.7184C21.4957 16.54 21.6645 16.3528 21.8311 16.1589C21.8576 16.1281 21.8841 16.0974 21.9114 16.0657C21.9931 15.9709 22.0747 15.8759 22.1562 15.7809C22.1807 15.7525 22.2051 15.7241 22.2302 15.6948C22.3933 15.505 22.5561 15.3149 22.7188 15.1247C23.0323 14.7582 23.3468 14.3925 23.6629 14.0282C23.9277 13.723 24.1905 13.4161 24.4531 13.1091C24.7667 12.7425 25.0811 12.3768 25.3973 12.0126C25.662 11.7073 25.9249 11.4005 26.1875 11.0934C26.501 10.7269 26.8155 10.3612 27.1317 9.99693C27.4459 9.6347 27.7575 9.27027 28.0689 8.90569C28.0933 8.87711 28.1178 8.84853 28.143 8.81909C28.1887 8.76561 28.2344 8.71211 28.28 8.65857C28.3238 8.60736 28.3686 8.55693 28.4141 8.50721C28.4891 8.42124 28.4891 8.42124 28.5459 8.30907C28.6395 8.16184 28.708 8.0894 28.8594 7.99968C29.2192 7.92745 29.5965 7.96023 29.9609 7.97331C30.0631 7.97543 30.1653 7.97736 30.2675 7.97908C30.5169 7.98371 30.7663 7.99076 31.0156 7.99968C30.9714 8.05929 30.9272 8.11883 30.8828 8.17833C30.8459 8.22808 30.8459 8.22808 30.8081 8.27883C30.7075 8.40954 30.5986 8.52715 30.4854 8.64714C30.281 8.86595 30.0899 9.09224 29.9022 9.32555C29.7927 9.45781 29.6788 9.58433 29.5625 9.71062C29.3697 9.92014 29.1889 10.1367 29.0101 10.3583C28.8751 10.5218 28.7325 10.6776 28.5897 10.8343C28.4815 10.9561 28.3786 11.081 28.2764 11.2077C28.0954 11.4314 27.9044 11.6433 27.7097 11.855C27.5587 12.0231 27.4175 12.1981 27.2757 12.3739C27.1407 12.5374 26.9981 12.6933 26.8553 12.85C26.7471 12.9717 26.6443 13.0966 26.542 13.2233C26.3611 13.447 26.1701 13.659 25.9753 13.8706C25.8244 14.0387 25.6832 14.2138 25.5413 14.3895C25.4395 14.5128 25.3343 14.6315 25.2266 14.7497C25.0806 14.9099 24.941 15.0734 24.8047 15.2419C24.6354 15.4511 24.4584 15.6511 24.2772 15.85C24.169 15.9717 24.0661 16.0966 23.9639 16.2233C23.7829 16.447 23.5919 16.659 23.3972 16.8706C23.2466 17.0383 23.1057 17.2128 22.9645 17.3884C22.8244 17.5576 22.6752 17.7174 22.5241 17.8768C22.4306 17.9926 22.3751 18.0725 22.3438 18.2184C22.3967 18.3446 22.3967 18.3446 22.4932 18.4675C22.5459 18.5415 22.5459 18.5415 22.5997 18.6171C22.6191 18.6435 22.6384 18.67 22.6583 18.6973C22.7422 18.8134 22.8228 18.9318 22.9036 19.0501C22.9689 19.1459 23.0347 19.2414 23.1005 19.3368C23.2313 19.5264 23.3618 19.7161 23.4922 19.9059C23.5352 19.9684 23.5781 20.0309 23.6211 20.0934C24.5664 21.4684 25.5117 22.8434 26.457 24.2184C26.4783 24.2494 26.4996 24.2803 26.5215 24.3121C26.5645 24.3748 26.6076 24.4374 26.6506 24.5C26.7568 24.6545 26.8631 24.809 26.9694 24.9635C27.2274 25.3386 27.4848 25.7141 27.7418 26.09C27.9678 26.4204 28.1945 26.7503 28.4214 27.0801C28.5284 27.2355 28.6353 27.391 28.7422 27.5466C28.7852 27.6091 28.8281 27.6716 28.8711 27.7341C29.4727 28.6091 30.0742 29.4841 30.6758 30.3591C30.6971 30.39 30.7184 30.421 30.7403 30.4529C30.783 30.5151 30.8257 30.5772 30.8684 30.6394C30.9795 30.8012 31.091 30.9627 31.2029 31.1239C31.226 31.1572 31.2491 31.1905 31.2729 31.2249C31.3167 31.2881 31.3605 31.3512 31.4045 31.4142C31.4245 31.4431 31.4445 31.472 31.4651 31.5018C31.4825 31.5267 31.4998 31.5517 31.5177 31.5774C31.606 31.715 31.6848 31.8576 31.7656 31.9997C30.8533 32.0205 29.9411 32.0362 29.0286 32.0458C28.6048 32.0504 28.1812 32.0567 27.7576 32.0669C27.3881 32.0758 27.0187 32.0815 26.6491 32.0835C26.4535 32.0846 26.2582 32.0873 26.0628 32.0938C24.8778 32.1318 24.8778 32.1319 24.5644 31.9142C24.3659 31.7102 24.2424 31.4817 24.1306 31.2221C24.0468 31.0415 23.9312 30.8858 23.8145 30.7253C23.7722 30.6642 23.73 30.603 23.6881 30.5416C23.6674 30.5116 23.6467 30.4815 23.6254 30.4505C23.5185 30.2951 23.4116 30.1396 23.3047 29.9841C23.2617 29.9216 23.2188 29.8591 23.1758 29.7966C22.2305 28.4216 21.2852 27.0466 20.3398 25.6716C20.3186 25.6406 20.2973 25.6097 20.2754 25.5778C20.2324 25.5152 20.1893 25.4526 20.1463 25.39C20.0401 25.2355 19.9338 25.081 19.8275 24.9265C19.6974 24.7374 19.5674 24.5483 19.4375 24.3591C19.4129 24.3233 19.3884 24.2876 19.3631 24.2507C19.0247 23.7581 18.6894 23.2636 18.3594 22.7653C18.0533 23.0911 17.7556 23.4191 17.4755 23.7678C17.3751 23.8902 17.2708 24.0077 17.1641 24.1247C17.019 24.2839 16.8804 24.4463 16.7451 24.6139C16.5642 24.8376 16.3732 25.0496 16.1784 25.2612C16.0275 25.4293 15.8863 25.6044 15.7444 25.7801C15.6095 25.9437 15.4669 26.0995 15.324 26.2562C15.2158 26.3779 15.113 26.5028 15.0107 26.6296C14.8298 26.8533 14.6388 27.0652 14.444 27.2768C14.2931 27.4449 14.1519 27.62 14.0101 27.7958C13.8751 27.9593 13.7325 28.1151 13.5897 28.2718C13.4815 28.3936 13.3786 28.5185 13.2764 28.6452C13.0954 28.8689 12.9044 29.0808 12.7097 29.2925C12.5587 29.4606 12.4175 29.6356 12.2757 29.8114C12.1407 29.9749 11.9981 30.1308 11.8553 30.2875C11.7471 30.4092 11.6443 30.5341 11.542 30.6608C11.3615 30.884 11.1711 31.0954 10.9767 31.3064C10.8174 31.4839 10.6675 31.6679 10.5179 31.8536C10.4375 31.9528 10.4375 31.9528 10.3906 31.9997C10.323 32.004 10.2551 32.0052 10.1874 32.005C10.1226 32.005 10.1226 32.005 10.0566 32.005C10.0096 32.0047 9.96271 32.0045 9.91437 32.0043C9.86657 32.0042 9.81878 32.0041 9.76954 32.0041C9.61621 32.0038 9.46289 32.0032 9.30957 32.0026C9.2059 32.0024 9.10223 32.0022 8.99857 32.002C8.74383 32.0015 8.4891 32.0007 8.23438 31.9997C8.27901 31.9397 8.32371 31.8797 8.36844 31.8197C8.39333 31.7863 8.41822 31.7529 8.44386 31.7185C8.52961 31.6064 8.62166 31.5024 8.71777 31.3991C8.86685 31.236 9.00956 31.07 9.14844 30.8981C9.31773 30.6889 9.49468 30.4889 9.67596 30.29C9.78415 30.1683 9.88698 30.0434 9.98926 29.9167C10.1702 29.693 10.3612 29.481 10.556 29.2694C10.7069 29.1013 10.8481 28.9262 10.9899 28.7505C11.1249 28.5869 11.2675 28.4311 11.4103 28.2744C11.5185 28.1527 11.6214 28.0278 11.7236 27.901C11.9046 27.6773 12.0956 27.4654 12.2903 27.2538C12.4413 27.0857 12.5825 26.9106 12.7243 26.7348C12.8593 26.5713 13.0019 26.4155 13.1447 26.2588C13.2529 26.137 13.3557 26.0121 13.458 25.8854C13.6389 25.6617 13.8299 25.4498 14.0247 25.2381C14.1756 25.0701 14.3168 24.895 14.4587 24.7192C14.5937 24.5557 14.7363 24.3998 14.8791 24.2431C14.9873 24.1214 15.0901 23.9965 15.1924 23.8698C15.3733 23.6461 15.5643 23.4342 15.7591 23.2225C15.91 23.0544 16.0512 22.8794 16.1931 22.7036C16.3277 22.5405 16.4699 22.385 16.6124 22.2288C16.7624 22.0599 16.9037 21.8844 17.0449 21.7081C17.1406 21.5934 17.1406 21.5934 17.2496 21.4964C17.2755 21.4665 17.3014 21.4367 17.3281 21.4059C17.2995 21.1978 17.1713 21.0457 17.0527 20.8786C17.0055 20.811 16.9582 20.7433 16.911 20.6757C16.8868 20.6412 16.8626 20.6068 16.8376 20.5712C16.7266 20.4127 16.6172 20.2531 16.5078 20.0934C16.4649 20.0309 16.4219 19.9684 16.3789 19.9059C15.9492 19.2809 15.5195 18.6559 15.0898 18.0309C15.0686 18 15.0473 17.9691 15.0254 17.9372C14.9824 17.8746 14.9393 17.812 14.8963 17.7494C14.7901 17.5949 14.6838 17.4403 14.5775 17.2859C14.3194 16.9108 14.062 16.5352 13.805 16.1594C13.579 15.829 13.3524 15.4991 13.1254 15.1693C13.0185 15.0138 12.9116 14.8583 12.8047 14.7028C12.7617 14.6403 12.7188 14.5778 12.6758 14.5153C11.7305 13.1403 10.7852 11.7653 9.83984 10.3903C9.80795 10.3439 9.80795 10.3439 9.77541 10.2966C9.73237 10.234 9.68932 10.1714 9.64628 10.1087C9.54005 9.95423 9.43381 9.79972 9.32751 9.64525C9.24304 9.52249 9.15864 9.39968 9.07428 9.27684C8.97401 9.13083 8.87348 8.98501 8.77289 8.83922C8.7174 8.75859 8.66192 8.67797 8.60645 8.59734C8.58017 8.55934 8.55389 8.52135 8.52682 8.4822C8.49001 8.42861 8.49001 8.42861 8.45245 8.37395C8.4307 8.34239 8.40894 8.31083 8.38652 8.27832C8.32862 8.18796 8.28163 8.09593 8.23438 7.99968ZM11.1406 9.59343C11.1925 9.6754 11.2445 9.75734 11.2964 9.83926C11.3254 9.88489 11.3543 9.93053 11.3841 9.97754C11.4945 10.149 11.6108 10.3154 11.7295 10.4811C11.7785 10.5501 11.8275 10.6191 11.8765 10.688C11.9144 10.7414 11.9144 10.7414 11.9531 10.7957C12.0874 10.9852 12.2205 11.1756 12.3535 11.3659C12.3946 11.4247 12.3946 11.4247 12.4366 11.4846C12.4924 11.5644 12.5482 11.6442 12.604 11.724C12.7411 11.9201 12.8784 12.1161 13.0156 12.3122C13.0703 12.3903 13.125 12.4684 13.1797 12.5466C13.2203 12.6046 13.2203 12.6046 13.2617 12.6637C13.3438 12.7809 13.4258 12.8981 13.5078 13.0153C13.5349 13.054 13.5619 13.0926 13.5898 13.1325C13.6446 13.2107 13.6994 13.2889 13.7541 13.3672C13.8896 13.5608 14.0252 13.7543 14.1608 13.9479C14.4836 14.4087 14.8055 14.8702 15.1266 15.3322C15.4108 15.7409 15.6962 16.1489 15.982 16.5566C16.1183 16.7511 16.2544 16.9457 16.3906 17.1403C16.4453 17.2184 16.5 17.2966 16.5547 17.3747C16.6641 17.5309 16.7734 17.6872 16.8828 17.8434C16.9099 17.8821 16.9369 17.9208 16.9648 17.9606C17.0196 18.0388 17.0744 18.1171 17.1291 18.1953C17.2646 18.3889 17.4002 18.5825 17.5358 18.776C17.8586 19.2368 18.1805 19.6983 18.5016 20.1603C18.7858 20.5691 19.0712 20.977 19.357 21.3848C19.4933 21.5793 19.6294 21.7739 19.7656 21.9684C19.8203 22.0466 19.875 22.1247 19.9297 22.2028C20.0391 22.3591 20.1484 22.5153 20.2578 22.6716C20.2849 22.7102 20.3119 22.7489 20.3398 22.7887C20.3946 22.8669 20.4494 22.9452 20.5041 23.0234C20.6396 23.217 20.7752 23.4106 20.9108 23.6041C21.2336 24.0649 21.5555 24.5264 21.8766 24.9884C22.1608 25.3972 22.4462 25.8051 22.732 26.2129C22.8683 26.4074 23.0044 26.602 23.1406 26.7966C23.1953 26.8747 23.25 26.9528 23.3047 27.0309C23.6328 27.4997 23.9609 27.9684 24.2891 28.4372C24.3162 28.4759 24.3433 28.5146 24.3712 28.5545C24.4256 28.6322 24.48 28.7099 24.5343 28.7876C24.6756 28.9894 24.8169 29.1912 24.9585 29.3928C25.0023 29.4552 25.0023 29.4552 25.0469 29.5189C25.1022 29.5976 25.1575 29.6764 25.2128 29.7551C25.2381 29.7912 25.2635 29.8273 25.2896 29.8645C25.3223 29.9111 25.3223 29.9111 25.3557 29.9587C25.4375 30.0778 25.4375 30.0778 25.4842 30.1836C25.5506 30.3152 25.6076 30.402 25.7188 30.4997C25.9566 30.5596 26.1903 30.5489 26.4332 30.5409C26.5032 30.5401 26.5732 30.5395 26.6433 30.5391C26.8269 30.5375 27.0104 30.5333 27.1939 30.5286C27.3815 30.5243 27.5691 30.5224 27.7567 30.5203C28.1243 30.5158 28.4918 30.5086 28.8594 30.4997C28.807 30.417 28.7545 30.3343 28.7021 30.2516C28.6729 30.2056 28.6437 30.1595 28.6136 30.1121C28.5209 29.968 28.4241 29.8295 28.3232 29.6911C28.1118 29.3985 27.9051 29.1028 27.6992 28.8063C27.4596 28.4612 27.2196 28.1163 26.9785 27.7721C26.9385 27.715 26.9385 27.715 26.8976 27.6567C26.844 27.5801 26.7904 27.5036 26.7368 27.4271C26.6005 27.2326 26.4643 27.038 26.3281 26.8434C26.2734 26.7653 26.2188 26.6872 26.1641 26.6091C26.0547 26.4528 25.9453 26.2966 25.8359 26.1403C25.8089 26.1016 25.7818 26.063 25.7539 26.0232C25.6992 25.9449 25.6444 25.8667 25.5896 25.7884C25.4541 25.5948 25.3186 25.4013 25.183 25.2077C24.8601 24.7469 24.5383 24.2854 24.2171 23.8234C23.9329 23.4147 23.6475 23.0067 23.3618 22.599C23.2255 22.4045 23.0893 22.2099 22.9531 22.0153C22.8984 21.9372 22.8438 21.8591 22.7891 21.7809C22.6797 21.6247 22.5703 21.4684 22.4609 21.3122C22.4339 21.2735 22.4068 21.2349 22.3789 21.195C22.3242 21.1168 22.2694 21.0385 22.2146 20.9603C22.0791 20.7667 21.9436 20.5731 21.808 20.3796C21.4851 19.9188 21.1633 19.4573 20.8421 18.9953C20.5579 18.5865 20.2725 18.1786 19.9868 17.7709C19.8505 17.5763 19.7143 17.3818 19.5781 17.1872C19.5234 17.1091 19.4688 17.0309 19.4141 16.9528C19.0859 16.4841 18.7578 16.0153 18.4297 15.5466C18.3891 15.4886 18.3891 15.4886 18.3477 15.4294C18.2929 15.3512 18.2381 15.2729 18.1834 15.1947C18.0479 15.0011 17.9123 14.8075 17.7767 14.614C17.4539 14.1532 17.132 13.6917 16.8109 13.2297C16.5267 12.8209 16.2413 12.413 15.9555 12.0052C15.7921 11.772 15.6289 11.5388 15.4656 11.3055C15.3244 11.1036 15.1831 10.9019 15.0415 10.7003C14.9977 10.6379 14.9977 10.6379 14.9531 10.5742C14.8978 10.4955 14.8425 10.4167 14.7872 10.338C14.7492 10.2839 14.7492 10.2839 14.7104 10.2286C14.6886 10.1975 14.6668 10.1664 14.6443 10.1344C14.5625 10.0153 14.5625 10.0153 14.5158 9.90953C14.4494 9.77791 14.3924 9.69116 14.2812 9.59343C14.0434 9.53356 13.8097 9.54421 13.5668 9.55223C13.4968 9.55302 13.4268 9.55362 13.3567 9.55404C13.1731 9.55565 12.9896 9.55978 12.8061 9.56446C12.6185 9.56879 12.4309 9.57071 12.2433 9.57283C11.8757 9.57735 11.5082 9.58454 11.1406 9.59343Z" fill="#344054"/>
</g>
<defs>
<clipPath id="clip0_21312_3702">
<rect width="24" height="24" fill="white" transform="translate(8 8)"/>
</clipPath>
</defs>
</svg>
