<svg width="40" height="40" viewBox="0 0 40 40" fill="none" xmlns="http://www.w3.org/2000/svg">
<rect width="40" height="40" rx="20" fill="#EAECF0"/>
<path d="M19.8768 11.8819C19.9277 11.8819 19.9787 11.8819 20.0312 11.8819C25.6768 11.8827 25.6768 11.8827 28.1092 12.2159C28.1593 12.2227 28.2093 12.2295 28.2609 12.2365C29.1035 12.3655 29.8341 12.7183 30.3614 13.4005C31.1062 14.4641 31.1282 15.9812 31.203 17.2344C31.205 17.2646 31.207 17.2948 31.209 17.3259C31.2605 18.117 31.2593 18.9088 31.2586 19.7012C31.2586 19.7361 31.2586 19.771 31.2586 19.8069C31.2581 20.8424 31.2551 21.8744 31.1561 22.9063C31.1529 22.94 31.1497 22.9736 31.1465 23.0083C30.8777 25.8354 30.8777 25.8354 29.9374 26.6563C28.6585 27.659 26.6945 27.53 25.1444 27.5996C25.1049 27.6014 25.0653 27.6033 25.0246 27.6051C23.3837 27.6785 21.7418 27.6972 20.0995 27.6963C20.0292 27.6963 20.0292 27.6963 19.9575 27.6963C11.12 27.695 11.12 27.695 9.82926 26.4247C8.16179 24.6106 8.63931 20.4102 8.73517 18.1103C8.91541 13.9975 8.91541 13.9975 9.99424 12.9719C10.4301 12.6047 10.9229 12.3602 11.4833 12.2627C11.5269 12.2551 11.5706 12.2474 11.6156 12.2395C12.6626 12.0684 13.7327 12.0274 14.7909 11.9786C14.8491 11.9758 14.8491 11.9758 14.9085 11.9731C15.2149 11.9591 15.5214 11.9478 15.828 11.9375C15.8883 11.9355 15.9487 11.9335 16.0109 11.9314C17.2995 11.8889 18.5876 11.8812 19.8768 11.8819ZM17.7499 16.4844C17.7499 18.6655 17.7499 20.8466 17.7499 23.0938C17.9303 23.0216 18.0873 22.9473 18.256 22.8536C18.3082 22.8245 18.3604 22.7955 18.4143 22.7657C18.4701 22.7344 18.526 22.7032 18.5819 22.6719C18.6104 22.656 18.6389 22.6401 18.6683 22.6238C19.0612 22.4047 19.4512 22.1814 19.838 21.9516C20.6926 21.4444 21.559 20.9565 22.4222 20.464C22.6656 20.325 22.9089 20.186 23.1522 20.0469C23.2325 20.001 23.3128 19.9551 23.3932 19.9092C23.4261 19.8904 23.4589 19.8716 23.4928 19.8523C23.5272 19.8326 23.5272 19.8326 23.5624 19.8125C23.425 19.7053 23.2839 19.6157 23.1328 19.5291C23.0847 19.5014 23.0366 19.4738 22.987 19.4453C22.9352 19.4157 22.8834 19.386 22.8299 19.3555C22.7752 19.3241 22.7206 19.2927 22.6659 19.2613C22.5523 19.1961 22.4387 19.1309 22.3251 19.0657C22.0653 18.9168 21.8061 18.7669 21.5467 18.6172C21.445 18.5586 21.3434 18.4999 21.2417 18.4413C21.0397 18.3248 20.8378 18.2082 20.636 18.0915C20.045 17.7501 19.4532 17.4102 18.8602 17.0723C18.7835 17.0285 18.7835 17.0285 18.7053 16.9839C18.6559 16.9558 18.6065 16.9276 18.5556 16.8986C18.3539 16.7824 18.1539 16.6634 17.9542 16.5438C17.8508 16.477 17.8508 16.477 17.7499 16.4844Z" fill="#344054"/>
</svg>
