<svg width="80" height="80" viewBox="0 0 80 80" fill="none" xmlns="http://www.w3.org/2000/svg">
<g clip-path="url(#clip0_21087_2951)">
<path d="M48.9825 -0.0260344C49.1527 -0.0266748 49.3229 -0.0273153 49.4983 -0.0279751C50.0464 -0.0294618 50.5945 -0.029465 51.1426 -0.0290862C51.4213 -0.0291782 51.4213 -0.0291782 51.7057 -0.0292721C57.8064 -0.026849 57.8064 -0.026849 60.7812 0.468961C60.7812 4.69709 60.7812 8.92521 60.7812 13.2815C57.168 13.3498 57.168 13.3498 56.0418 13.3702C51.4942 13.2614 51.4942 13.2614 47.6367 15.3127C46.5885 16.5892 46.3956 18.3834 46.3742 19.9773C46.3726 20.0796 46.371 20.182 46.3694 20.2874C46.3646 20.6147 46.3607 20.9419 46.3568 21.2691C46.3524 21.5716 46.3524 21.5716 46.348 21.8801C46.3373 22.6304 46.3279 23.3807 46.3184 24.1311C46.2958 25.8101 46.2732 27.4891 46.25 29.219C50.8906 29.219 55.5312 29.219 60.3125 29.219C60.133 31.7319 60.133 31.7319 59.9951 32.7736C59.9796 32.8946 59.9641 33.0157 59.9481 33.1404C59.899 33.5224 59.8491 33.9043 59.7992 34.2861C59.7683 34.5259 59.7374 34.7656 59.7066 35.0054C59.5935 35.8827 59.4793 36.7598 59.3652 37.6369C59.1106 39.6027 58.8561 41.5686 58.5938 43.594C54.5203 43.594 50.4469 43.594 46.25 43.594C46.25 55.608 46.25 67.6221 46.25 80.0002C41.3516 80.0002 36.4531 80.0002 31.4062 80.0002C31.4062 67.9861 31.4062 55.9721 31.4062 43.594C27.3844 43.594 23.3625 43.594 19.2188 43.594C19.2188 38.8502 19.2188 34.1065 19.2188 29.219C23.2406 29.219 27.2625 29.219 31.4062 29.219C31.3939 25.5031 31.3939 25.5031 31.3781 21.7872C31.3613 15.9453 31.6848 10.0443 35.7812 5.46896C35.9061 5.32938 36.031 5.1898 36.1597 5.04599C39.4944 1.51891 44.2086 -0.0204479 48.9825 -0.0260344Z" fill="white"/>
</g>
<defs>
<clipPath id="clip0_21087_2951">
<rect width="80" height="80" fill="white"/>
</clipPath>
</defs>
</svg>
