<svg width="80" height="80" viewBox="0 0 80 80" fill="none" xmlns="http://www.w3.org/2000/svg">
<path d="M66.8115 31.2544C70.5404 34.4366 71.6186 39.2889 71.9984 43.9714C72.0628 45.0697 72.0515 46.1689 72.049 47.2686C72.0489 47.5398 72.049 47.811 72.049 48.0822C72.0491 48.813 72.0482 49.5437 72.0471 50.2745C72.0461 51.0402 72.046 51.806 72.0458 52.5717C72.0454 54.0193 72.0441 55.4668 72.0425 56.9144C72.0404 58.8722 72.0396 60.8301 72.0387 62.7879C72.0372 65.869 72.0341 68.9502 72.0312 72.0313C67.5969 72.0313 63.1625 72.0313 58.5937 72.0313C58.5879 70.2687 58.5821 68.5062 58.576 66.6902C58.5713 65.5701 58.5665 64.45 58.5611 63.3299C58.5526 61.554 58.5446 59.7782 58.5396 58.0024C58.536 56.7087 58.5308 55.415 58.5236 54.1213C58.5199 53.4373 58.517 52.7534 58.516 52.0694C58.515 51.4234 58.5119 50.7774 58.5071 50.1314C58.5058 49.8965 58.5052 49.6615 58.5055 49.4265C58.5078 46.5821 58.2423 43.5579 56.1621 41.4265C54.7898 40.2279 53.1024 39.929 51.3153 40.03C50.066 40.1308 48.903 40.2784 47.8125 40.9376C47.6546 41.0246 47.4967 41.1116 47.334 41.2013C45.3422 42.7693 44.5511 44.9434 44.2524 47.4057C44.1761 48.3273 44.1904 49.2535 44.1867 50.1777C44.1852 50.4165 44.1836 50.6553 44.182 50.8941C44.1778 51.5393 44.1745 52.1846 44.1714 52.8298C44.1679 53.5052 44.1637 54.1807 44.1595 54.8561C44.1517 56.1338 44.1447 57.4115 44.1379 58.6892C44.1287 60.4167 44.1184 62.1442 44.1081 63.8717C44.0919 66.5916 44.0773 69.3115 44.0625 72.0313C39.6281 72.0313 35.1937 72.0313 30.625 72.0313C30.625 57.9032 30.625 43.7751 30.625 29.2188C34.8531 29.2188 39.0812 29.2188 43.4375 29.2188C43.4891 31.0235 43.5406 32.8282 43.5937 34.6876C43.9547 34.172 44.3156 33.6563 44.6875 33.1251C47.0112 30.1508 50.5865 28.6336 54.2682 28.1739C58.6363 27.8033 63.2872 28.4997 66.8115 31.2544Z" fill="white"/>
<path d="M8.90625 29.2188C13.3406 29.2188 17.775 29.2188 22.3438 29.2188C22.3438 43.3469 22.3438 57.475 22.3438 72.0312C17.9094 72.0312 13.475 72.0312 8.90625 72.0312C8.90625 57.9031 8.90625 43.775 8.90625 29.2188Z" fill="white"/>
<path d="M19.9611 9.08189C21.7479 10.3035 22.8436 11.9776 23.3589 14.0654C23.7397 16.3179 23.286 18.4161 22.0314 20.3124C20.8558 21.9236 19.1623 23.0722 17.1876 23.4374C15.516 23.5991 13.858 23.6129 12.3439 22.8124C12.143 22.7102 12.143 22.7102 11.938 22.6061C10.0751 21.5777 8.80117 19.9759 8.13488 17.9491C7.61388 15.699 7.90762 13.5356 9.02356 11.5233C10.1285 9.79953 11.7252 8.67524 13.6775 8.07725C15.876 7.63606 18.0197 7.94609 19.9611 9.08189Z" fill="white"/>
</svg>
