<svg width="80" height="80" viewBox="0 0 80 80" fill="none" xmlns="http://www.w3.org/2000/svg">
<g clip-path="url(#clip0_21087_2953)">
<path d="M0.78125 -0.000413567C3.8277 -0.058912 6.87403 -0.102946 9.92093 -0.129944C11.3358 -0.142815 12.7503 -0.160349 14.165 -0.189012C15.3986 -0.213995 16.6319 -0.230073 17.8658 -0.235635C18.5188 -0.238885 19.1711 -0.24647 19.8238 -0.264739C23.7927 -0.371608 23.7927 -0.371608 24.7583 0.243915C25.3418 0.812961 25.6855 1.44813 25.9739 2.204C26.1402 2.61409 26.3827 2.95139 26.6455 3.30525C26.8002 3.53147 26.9548 3.75771 27.1094 3.98396C27.9489 5.21179 28.7908 6.43804 29.6339 7.66339C29.9905 8.18161 30.3468 8.69998 30.7031 9.21834C30.8464 9.42667 30.9896 9.635 31.1328 9.84334C40.5859 23.5933 40.5859 23.5933 40.801 23.9062C40.9435 24.1134 41.0859 24.3206 41.2284 24.5277C41.5985 25.0659 41.9683 25.6042 42.3376 26.1428C42.4139 26.2539 42.4901 26.3649 42.5687 26.4794C42.713 26.6897 42.8572 26.9001 43.0014 27.1105C43.4518 27.7665 43.9108 28.4157 44.375 29.0621C44.9856 28.4673 45.5484 27.8435 46.1035 27.1969C46.1919 27.0943 46.2803 26.9918 46.3714 26.8862C46.6438 26.5702 46.9157 26.2537 47.1875 25.9371C47.2689 25.8424 47.3502 25.7477 47.4341 25.6501C47.9776 25.0172 48.5202 24.3835 49.0625 23.7496C50.1077 22.5278 51.1559 21.3089 52.2097 20.0946C53.0922 19.0772 53.9683 18.0543 54.8438 17.0308C55.8889 15.8091 56.9371 14.5901 57.991 13.3758C58.8734 12.3584 59.7495 11.3355 60.625 10.3121C61.6702 9.09032 62.7184 7.87136 63.7722 6.65707C64.8195 5.44966 65.8582 4.2349 66.8964 3.01961C66.9778 2.92435 67.0593 2.82909 67.1432 2.73095C67.2956 2.5527 67.448 2.37436 67.6001 2.1959C67.7461 2.0252 67.8952 1.85707 68.0469 1.69137C68.2969 1.4048 68.2969 1.4048 68.4863 1.03089C68.7982 0.540131 69.0266 0.298642 69.5312 -0.000413567C70.7307 -0.24117 71.9885 -0.131919 73.2031 -0.0883042C73.5437 -0.081245 73.8843 -0.0748296 74.2249 -0.0690781C75.0565 -0.0536363 75.8875 -0.0301564 76.7188 -0.000413567C76.5715 0.198285 76.4239 0.396742 76.2761 0.595099C76.1529 0.760912 76.1529 0.760912 76.0272 0.930074C75.6918 1.36579 75.3288 1.75783 74.9512 2.15779C74.27 2.88714 73.6331 3.64145 73.0072 4.41914C72.6424 4.86001 72.2625 5.28176 71.875 5.70271C71.2322 6.40113 70.6296 7.12309 70.0336 7.86153C69.5836 8.4067 69.1083 8.92614 68.6322 9.44844C68.2716 9.85422 67.9288 10.2705 67.5879 10.6929C66.9848 11.4386 66.3481 12.1451 65.6989 12.8505C65.1958 13.4108 64.7251 13.9944 64.2523 14.5803C63.8024 15.1254 63.327 15.6449 62.851 16.1672C62.4903 16.573 62.1476 16.9893 61.8066 17.4117C61.2036 18.1574 60.5669 18.8638 59.9176 19.5693C59.4145 20.1296 58.9439 20.7132 58.4711 21.299C58.1318 21.7101 57.7809 22.1057 57.4219 22.4996C56.9352 23.0336 56.47 23.5785 56.0156 24.1402C55.4513 24.8377 54.8615 25.5043 54.2572 26.1672C53.8966 26.573 53.5538 26.9893 53.2129 27.4117C52.6098 28.1574 51.9731 28.8638 51.3239 29.5693C50.822 30.1283 50.3522 30.71 49.8816 31.2954C49.4146 31.8592 48.9173 32.392 48.4137 32.9232C48.1021 33.3092 47.9171 33.5755 47.8125 34.0621C47.989 34.4827 47.989 34.4827 48.3105 34.8922C48.4864 35.139 48.4864 35.139 48.6658 35.3908C48.7302 35.4791 48.7946 35.5673 48.8609 35.6582C49.1408 36.0454 49.4093 36.4398 49.6785 36.8344C49.8964 37.1537 50.1156 37.472 50.3351 37.7901C50.7709 38.422 51.2059 39.0545 51.6406 39.6871C51.7839 39.8954 51.9271 40.1038 52.0703 40.3121C55.2214 44.8954 58.3724 49.4788 61.5234 54.0621C61.5943 54.1652 61.6652 54.2683 61.7382 54.3745C61.8817 54.5832 62.0252 54.7919 62.1687 55.0006C62.5227 55.5157 62.8769 56.0307 63.2312 56.5456C64.0914 57.7959 64.9494 59.0478 65.8061 60.3006C66.5594 61.4019 67.315 62.5017 68.0714 63.6009C68.428 64.1191 68.7843 64.6375 69.1406 65.1558C69.2839 65.3642 69.4271 65.5725 69.5703 65.7808C71.5755 68.6975 73.5807 71.6142 75.5859 74.5308C75.6569 74.6341 75.7279 74.7373 75.801 74.8437C75.9434 75.0508 76.0858 75.258 76.2281 75.4652C76.5984 76.0045 76.9699 76.543 77.3431 77.0803C77.4201 77.1914 77.497 77.3024 77.5763 77.4169C77.7222 77.6275 77.8685 77.8379 78.0151 78.048C78.0818 78.1444 78.1485 78.2407 78.2172 78.34C78.275 78.4231 78.3327 78.5062 78.3923 78.5919C78.6866 79.0505 78.9493 79.5259 79.2188 79.9996C76.1777 80.0691 73.1369 80.1214 70.0953 80.1534C68.6828 80.1687 67.2708 80.1895 65.8586 80.2235C64.6269 80.2532 63.3956 80.2723 62.1636 80.2789C61.5117 80.2828 60.8608 80.2917 60.2092 80.3135C56.2592 80.4401 56.2592 80.4402 55.2148 79.7146C54.553 79.0348 54.1414 78.2731 53.7687 77.4077C53.4892 76.8056 53.104 76.2865 52.7148 75.7515C52.5739 75.5478 52.4335 75.3438 52.2937 75.1394C52.2248 75.0392 52.1558 74.939 52.0848 74.8358C51.7283 74.3176 51.372 73.7992 51.0156 73.2808C50.8724 73.0725 50.7292 72.8642 50.5859 72.6558C47.4349 68.0725 44.2839 63.4892 41.1328 58.9058C41.0619 58.8027 40.9911 58.6997 40.918 58.5935C40.7746 58.3847 40.6311 58.176 40.4876 57.9673C40.1335 57.4522 39.7794 56.9372 39.425 56.4223C38.9914 55.792 38.5581 55.1615 38.125 54.5308C38.0431 54.4117 37.9613 54.2926 37.877 54.1698C36.7492 52.5275 35.6312 50.8794 34.5312 49.2183C33.5109 50.3043 32.5188 51.3975 31.5851 52.56C31.2502 52.9681 30.9025 53.3595 30.5469 53.7496C30.0632 54.2802 29.6013 54.8217 29.1504 55.3804C28.5473 56.1261 27.9106 56.8326 27.2614 57.538C26.7583 58.0983 26.2876 58.6819 25.8148 59.2678C25.3649 59.8129 24.8895 60.3324 24.4135 60.8547C24.0528 61.2605 23.7101 61.6768 23.3691 62.0992C22.7661 62.8449 22.1294 63.5513 21.4801 64.2568C20.977 64.8171 20.5064 65.4007 20.0336 65.9865C19.5836 66.5317 19.1083 67.0511 18.6322 67.5734C18.2716 67.9792 17.9288 68.3955 17.5879 68.8179C16.9848 69.5636 16.3481 70.2701 15.6989 70.9755C15.1958 71.5359 14.7251 72.1194 14.2523 72.7053C13.8024 73.2505 13.327 73.7699 12.851 74.2922C12.4903 74.698 12.1476 75.1143 11.8066 75.5367C11.2051 76.2805 10.5703 76.9853 9.92249 77.6888C9.39144 78.2803 8.89181 78.8935 8.39294 79.5125C8.125 79.8433 8.125 79.8433 7.96875 79.9996C7.7433 80.0141 7.51714 80.0179 7.29122 80.0173C7.07539 80.0173 7.07539 80.0173 6.8552 80.0173C6.69879 80.0165 6.54238 80.0157 6.38123 80.0148C6.22191 80.0146 6.0626 80.0144 5.89846 80.0142C5.38738 80.0133 4.87631 80.0113 4.36523 80.0094C4.01967 80.0086 3.67411 80.0079 3.32855 80.0072C2.47945 80.0055 1.63035 80.0029 0.78125 79.9996C0.930023 79.7995 1.07903 79.5996 1.22814 79.3998C1.3111 79.2885 1.39405 79.1771 1.47952 79.0624C1.76535 78.6887 2.07221 78.3421 2.39258 77.9976C2.88951 77.4541 3.36521 76.9005 3.82812 76.3277C4.39242 75.6302 4.98228 74.9636 5.58655 74.3007C5.94717 73.895 6.28993 73.4786 6.63086 73.0562C7.23392 72.3105 7.87063 71.6041 8.5199 70.8986C9.02298 70.3383 9.4936 69.7547 9.96643 69.1689C10.4164 68.6237 10.8917 68.1043 11.3678 67.582C11.7284 67.1762 12.0712 66.7599 12.4121 66.3375C13.0152 65.5918 13.6519 64.8854 14.3011 64.1799C14.8042 63.6196 15.2749 63.036 15.7477 62.4501C16.1976 61.905 16.673 61.3855 17.149 60.8632C17.5097 60.4575 17.8524 60.0411 18.1934 59.6187C18.7964 58.873 19.4331 58.1666 20.0824 57.4611C20.5855 56.9008 21.0561 56.3172 21.5289 55.7314C21.9789 55.1862 22.4542 54.6668 22.9303 54.1445C23.2909 53.7387 23.6337 53.3224 23.9746 52.9C24.5777 52.1543 25.2144 51.4479 25.8636 50.7424C26.3667 50.1821 26.8374 49.5985 27.3102 49.0126C27.7589 48.4689 28.2329 47.9508 28.7079 47.43C29.208 46.867 29.6791 46.282 30.1495 45.6942C30.4688 45.3121 30.4688 45.3121 30.8319 44.9886C30.9183 44.8891 31.0047 44.7896 31.0938 44.6871C30.9984 43.9934 30.571 43.4864 30.1758 42.9293C30.0183 42.7039 29.8608 42.4784 29.7034 42.253C29.6227 42.1381 29.5419 42.0232 29.4588 41.9048C29.0887 41.3764 28.7242 40.8442 28.3594 40.3121C28.2162 40.1037 28.0729 39.8954 27.9297 39.6871C26.4974 37.6038 25.0651 35.5204 23.6328 33.4371C23.5619 33.334 23.4911 33.2309 23.418 33.1247C23.2746 32.916 23.1311 32.7073 22.9876 32.4986C22.6335 31.9835 22.2794 31.4685 21.925 30.9536C21.0648 29.7032 20.2068 28.4514 19.3501 27.1986C18.5968 26.0973 17.8412 24.9975 17.0848 23.8983C16.7283 23.3801 16.372 22.8617 16.0156 22.3433C15.8724 22.135 15.7292 21.9267 15.5859 21.7183C12.4349 17.135 9.28385 12.5517 6.13281 7.96834C6.0265 7.81371 6.0265 7.81371 5.91805 7.65595C5.77456 7.44724 5.63107 7.23852 5.48759 7.02981C5.13351 6.51474 4.77936 5.99972 4.42505 5.48482C4.14348 5.07561 3.86213 4.66625 3.58093 4.25679C3.2467 3.77009 2.9116 3.284 2.57629 2.79805C2.39134 2.5293 2.20641 2.26054 2.02148 1.99177C1.93389 1.86512 1.8463 1.73847 1.75606 1.60798C1.63336 1.42937 1.63336 1.42937 1.50818 1.24714C1.43566 1.14196 1.36313 1.03677 1.28841 0.928389C1.09541 0.627175 0.938752 0.320433 0.78125 -0.000413567ZM10.4688 5.31209C10.6417 5.58533 10.8149 5.85845 10.9881 6.13152C11.0845 6.28363 11.1809 6.43574 11.2803 6.59245C11.6482 7.16391 12.0359 7.71873 12.4316 8.27107C12.5951 8.50093 12.7584 8.73083 12.9218 8.96077C13.0482 9.13849 13.0482 9.13849 13.1771 9.31981C13.6248 9.95131 14.0682 10.5858 14.5117 11.2203C14.6488 11.4162 14.6488 11.4162 14.7886 11.6161C14.9746 11.882 15.1606 12.1479 15.3465 12.4139C15.8037 13.0676 16.2612 13.7211 16.7188 14.3746C16.901 14.635 17.0833 14.8954 17.2656 15.1558C17.401 15.3492 17.401 15.3492 17.5391 15.5465C17.8125 15.9371 18.0859 16.3277 18.3594 16.7183C18.4496 16.8472 18.5398 16.9761 18.6327 17.1088C18.8153 17.3696 18.9978 17.6304 19.1804 17.8912C19.6321 18.5366 20.0838 19.1818 20.5359 19.8269C21.6121 21.3629 22.6848 22.9012 23.7553 24.4412C24.7028 25.8038 25.6542 27.1636 26.6066 28.5228C27.0609 29.1711 27.5148 29.8197 27.9688 30.4683C28.151 30.7288 28.3333 30.9892 28.5156 31.2496C28.8802 31.7704 29.2448 32.2913 29.6094 32.8121C29.6996 32.941 29.7898 33.0698 29.8827 33.2026C30.0653 33.4634 30.2478 33.7242 30.4304 33.985C30.8821 34.6303 31.3338 35.2755 31.7859 35.9206C32.8621 37.4566 33.9348 38.995 35.0053 40.5349C35.9528 41.8975 36.9042 43.2574 37.8566 44.6165C38.3109 45.2649 38.7648 45.9135 39.2188 46.5621C39.401 46.8225 39.5833 47.0829 39.7656 47.3433C40.1302 47.8642 40.4948 48.385 40.8594 48.9058C40.9496 49.0347 41.0398 49.1636 41.1327 49.2963C41.3153 49.5571 41.4978 49.8179 41.6804 50.0787C42.1321 50.7241 42.5838 51.3693 43.0359 52.0144C44.1121 53.5504 45.1848 55.0887 46.2553 56.6287C47.2028 57.9913 48.1542 59.3511 49.1066 60.7103C49.5609 61.3586 50.0148 62.0072 50.4688 62.6558C50.651 62.9163 50.8333 63.1767 51.0156 63.4371C52.1094 64.9996 53.2031 66.5621 54.2969 68.1246C54.3872 68.2536 54.4775 68.3827 54.5706 68.5156C54.7519 68.7746 54.9332 69.0337 55.1144 69.2927C55.5853 69.9655 56.0565 70.638 56.5283 71.31C56.6742 71.518 56.6742 71.518 56.8231 71.7302C57.0073 71.9928 57.1916 72.2552 57.3761 72.5176C57.4605 72.6379 57.5449 72.7583 57.6318 72.8823C57.7411 73.0378 57.7411 73.0378 57.8525 73.1964C58.125 73.5933 58.125 73.5933 58.2807 73.9459C58.5021 74.3847 58.6921 74.6738 59.0625 74.9996C59.8552 75.1992 60.6342 75.1637 61.4441 75.1369C61.6775 75.1343 61.9108 75.1323 62.1442 75.1309C62.7563 75.1255 63.3679 75.1117 63.9798 75.0961C64.605 75.0817 65.2304 75.0753 65.8557 75.0683C67.0811 75.0532 68.3061 75.0292 69.5312 74.9996C69.3566 74.7239 69.1818 74.4483 69.0069 74.1727C68.9096 74.0192 68.8123 73.8657 68.712 73.7076C68.4031 73.2274 68.0803 72.7657 67.7441 72.3043C67.0393 71.3291 66.3502 70.3435 65.6641 69.3551C64.8652 68.2046 64.0653 67.0549 63.2617 65.9078C63.1283 65.7173 63.1283 65.7173 62.9921 65.5229C62.8134 65.2678 62.6346 65.0127 62.4559 64.7577C62.0016 64.1093 61.5477 63.4607 61.0938 62.8121C60.9115 62.5517 60.7292 62.2913 60.5469 62.0308C60.1823 61.51 59.8177 60.9892 59.4531 60.4683C59.3629 60.3395 59.2727 60.2106 59.1798 60.0778C58.9972 59.817 58.8147 59.5562 58.6321 59.2954C58.1804 58.6501 57.7287 58.0049 57.2766 57.3598C56.2004 55.8238 55.1277 54.2855 54.0572 52.7455C53.1097 51.3829 52.1583 50.023 51.2059 48.6639C50.7516 48.0155 50.2977 47.3669 49.8438 46.7183C49.6615 46.4579 49.4792 46.1975 49.2969 45.9371C48.9323 45.4163 48.5677 44.8954 48.2031 44.3746C48.1129 44.2457 48.0227 44.1168 47.9298 43.9841C47.7472 43.7233 47.5647 43.4625 47.3821 43.2017C46.9304 42.5564 46.4787 41.9111 46.0266 41.2661C44.9504 39.7301 43.8777 38.1917 42.8072 36.6517C41.8597 35.2891 40.9083 33.9293 39.9559 32.5702C39.5016 31.9218 39.0477 31.2732 38.5938 30.6246C38.4115 30.3642 38.2292 30.1038 38.0469 29.8433C36.9531 28.2808 35.8594 26.7183 34.7656 25.1558C34.6303 24.9625 34.6303 24.9625 34.4923 24.7653C34.3097 24.5045 34.1272 24.2437 33.9446 23.9829C33.4929 23.3376 33.0412 22.6924 32.5891 22.0473C31.5129 20.5113 30.4402 18.973 29.3697 17.433C28.4222 16.0704 27.4708 14.7105 26.5184 13.3514C25.9738 12.5741 25.4296 11.7965 24.8855 11.0189C24.4147 10.3461 23.9435 9.67368 23.4717 9.00166C23.3258 8.79365 23.3258 8.79365 23.1769 8.58144C22.9927 8.31889 22.8084 8.05643 22.6239 7.79408C22.4973 7.61356 22.4973 7.61356 22.3682 7.4294C22.2954 7.32573 22.2225 7.22206 22.1475 7.11526C21.875 6.71834 21.875 6.71834 21.7193 6.36574C21.4979 5.92701 21.3079 5.63784 20.9375 5.31209C20.1448 5.11251 19.3658 5.14801 18.5559 5.17476C18.3225 5.17738 18.0892 5.17938 17.8558 5.18079C17.2437 5.18614 16.6321 5.19993 16.0202 5.21553C15.395 5.22995 14.7696 5.23634 14.1443 5.24342C12.9189 5.25847 11.6939 5.28245 10.4688 5.31209Z" fill="white"/>
</g>
<defs>
<clipPath id="clip0_21087_2953">
<rect width="80" height="80" fill="white"/>
</clipPath>
</defs>
</svg>
