<svg width="80" height="80" viewBox="0 0 80 80" fill="none" xmlns="http://www.w3.org/2000/svg">
<path d="M39.59 12.9396C39.7598 12.9396 39.9296 12.9396 40.1045 12.9396C58.9234 12.9422 58.9234 12.9422 67.0314 14.0529C67.1982 14.0756 67.3651 14.0983 67.5369 14.1217C70.3457 14.5517 72.7811 15.7276 74.5388 18.0018C77.0213 21.5469 77.0946 26.6041 77.3439 30.7814C77.3505 30.882 77.3572 30.9826 77.364 31.0863C77.5356 33.7234 77.5316 36.3627 77.5295 39.004C77.5294 39.1203 77.5294 39.2365 77.5294 39.3563C77.5278 42.8081 77.5178 46.2481 77.1877 49.6876C77.1771 49.7999 77.1665 49.9121 77.1555 50.0277C76.2596 59.4515 76.2596 59.4515 73.1252 62.1876C68.8622 65.5301 62.3156 65.1001 57.1486 65.3321C57.0168 65.3382 56.8851 65.3442 56.7493 65.3504C51.2795 65.5951 45.8067 65.6573 40.3322 65.6544C40.098 65.6544 40.098 65.6544 39.8591 65.6544C10.4008 65.6499 10.4008 65.6499 6.0982 61.4155C0.539935 55.3686 2.13168 41.3673 2.4512 33.701C3.05201 19.9917 3.05201 19.9917 6.64812 16.573C8.10102 15.3491 9.74358 14.534 11.6115 14.2091C11.7571 14.1835 11.9027 14.158 12.0527 14.1317C15.5425 13.5614 19.1096 13.4246 22.6369 13.2618C22.831 13.2528 22.831 13.2528 23.0291 13.2436C24.0505 13.197 25.0721 13.1594 26.0939 13.1251C26.2951 13.1183 26.4963 13.1115 26.7036 13.1045C30.9989 12.963 35.2927 12.9375 39.59 12.9396ZM32.5002 28.2814C32.5002 35.5517 32.5002 42.822 32.5002 50.3126C33.1016 50.0721 33.6251 49.8244 34.1872 49.5118C34.3613 49.4152 34.5355 49.3185 34.7149 49.2189C34.9011 49.1147 35.0874 49.0106 35.2736 48.9064C35.3686 48.8534 35.4636 48.8004 35.5615 48.7458C36.8712 48.0156 38.1715 47.2713 39.4606 46.5052C42.3094 44.8147 45.1974 43.1883 48.0746 41.5465C48.8859 41.0835 49.6969 40.6199 50.508 40.1564C50.7757 40.0034 51.0435 39.8504 51.3112 39.6974C51.4208 39.6347 51.5305 39.5721 51.6434 39.5076C51.7581 39.442 51.7581 39.442 51.8752 39.3751C51.4174 39.0177 50.9471 38.7189 50.4433 38.4303C50.283 38.3381 50.1226 38.246 49.9575 38.1511C49.7846 38.0523 49.6118 37.9535 49.4338 37.8517C49.2515 37.747 49.0692 37.6424 48.8869 37.5377C48.5083 37.3202 48.1296 37.1029 47.7509 36.8858C46.885 36.3892 46.0208 35.8898 45.1564 35.3907C44.8175 35.1952 44.4785 34.9997 44.1396 34.8042C43.4664 34.4159 42.7934 34.0272 42.1205 33.6384C40.1506 32.5005 38.178 31.3674 36.2014 30.2409C35.9458 30.0951 35.9458 30.0951 35.685 29.9464C35.5203 29.8525 35.3556 29.7587 35.1859 29.662C34.5135 29.2748 33.8469 28.878 33.1813 28.4794C32.8365 28.2567 32.8365 28.2567 32.5002 28.2814Z" fill="white"/>
</svg>
