<svg width="143" height="28" viewBox="0 0 143 28" fill="none" xmlns="http://www.w3.org/2000/svg">
<g clip-path="url(#clip0_20035_4782)">
<path fill-rule="evenodd" clip-rule="evenodd" d="M46.6099 12.3842H43.3511V8.4395H46.5163C47.359 8.4395 49.2007 9.35306 48.5015 11.15C48.2767 11.7187 47.3778 12.3842 46.6099 12.3842ZM45.7983 6.2433H43.2637V2.38332H45.6173C47.0906 2.38332 48.3641 4.2286 47.0906 5.56568C46.8783 5.78349 46.1854 6.2433 45.7983 6.2433ZM40.0986 14.5743H46.9782C48.0457 14.5743 49.7438 13.7878 50.393 13.3219C50.88 12.971 51.1984 12.6383 51.523 12.1361C52.1098 11.2407 52.1785 10.067 51.7665 9.05661C51.6603 8.80855 51.2795 8.25799 51.0735 8.06439C50.6303 7.63483 49.4441 6.95721 48.7886 6.94511C48.9697 6.70916 49.2319 6.63051 49.4941 6.4006C51.2546 4.80942 51.4106 2.98833 49.6314 1.31244C49.132 0.840533 47.8335 0.199219 46.8908 0.199219H40.1049V14.5864L40.0986 14.5743Z" fill="white"/>
<path fill-rule="evenodd" clip-rule="evenodd" d="M97.7511 7.03729H95.4912V2.39079C97.2953 2.39079 97.9821 2.14879 99.3055 3.16521C100.504 4.07878 100.435 5.49451 99.4241 6.29313C99.0496 6.58353 98.3629 7.04334 97.7511 7.04334V7.03729ZM92.4135 14.6665H95.4912V9.05198H97.3016C97.6574 9.05198 97.3453 9.02173 97.5326 9.17904L101.372 14.2309C101.54 14.4729 101.559 14.5455 101.915 14.5818C102.845 14.6726 104.443 14.5758 105.448 14.5758C105.155 14.0373 104.624 13.4746 104.219 12.9604C103.782 12.3977 103.388 11.95 102.951 11.3813L100.741 8.61032C100.604 8.43487 100.504 8.35017 100.379 8.17472C101.903 7.39425 103.457 6.17212 103.457 4.31473C103.457 3.11681 102.783 2.07014 101.809 1.43487C101.029 0.92061 99.6551 0.279297 98.3878 0.279297H92.4135V14.6665Z" fill="white"/>
<path fill-rule="evenodd" clip-rule="evenodd" d="M22.5375 11.2485H17.6493V6.42656C17.6493 4.75068 19.5097 2.76624 21.1765 2.74204L26.4267 2.65733V7.47929C26.4267 9.37903 24.273 11.2485 22.5375 11.2485ZM15.1147 5.98491V13.5294H23.0806C24.3791 13.5294 26.0647 12.4404 26.9074 11.6236C27.9188 10.6435 28.7865 9.21567 28.7865 7.74549V1.51991C28.7865 0.939097 28.6929 0.763643 28.6929 0.207031L21.4512 0.291733C19.3099 0.291733 17.8553 1.0722 16.5506 2.64523C16.0075 3.3047 15.1147 4.85353 15.1147 5.99095V5.98491Z" fill="white"/>
<path fill-rule="evenodd" clip-rule="evenodd" d="M2.35452 25.2838V20.722C2.35452 18.8707 4.38968 16.9528 6.1564 16.9528H11.1319V21.8655C11.1319 23.13 9.82718 24.7877 8.27271 25.3201C7.21143 25.6892 4.27107 25.3141 2.83522 25.5077C2.56678 25.544 2.35452 25.6045 2.35452 25.2838ZM0.000976562 20.2864V27.9156H7.78577C10.6824 27.9156 13.6665 24.7211 13.6665 22.0409V14.6719H5.61327C4.50205 14.6719 3.05996 15.5189 2.24215 16.2268C2.05486 16.3841 2.01116 16.3962 1.83637 16.5353C0.993585 17.225 0.000976562 19.1732 0.000976562 20.2803V20.2864Z" fill="white"/>
<path fill-rule="evenodd" clip-rule="evenodd" d="M61.4554 4.05409C61.4554 6.09298 63.4031 7.24251 64.9264 7.97457C66.4496 8.70664 69.2402 9.57181 69.2402 11.163C69.2402 12.494 66.3435 13.3592 63.8713 12.4154C63.3407 12.2097 62.6165 11.7862 62.1795 11.6894C61.9361 11.8588 61.0933 13.1958 60.9122 13.5286C64.5705 15.9002 72.4989 15.1077 72.4989 10.9875C72.4989 5.88123 64.8951 6.49834 64.8951 3.88468C64.8951 1.93654 66.7243 2.2209 68.1539 2.2209C68.7595 2.2209 69.5148 2.42055 69.9768 2.5597C70.7384 2.78356 71.3315 3.12842 71.5937 3.18287V0.817267C71.2753 0.744666 71.1629 0.635763 70.8133 0.520811C68.4785 -0.265706 65.3446 -0.199155 63.2283 1.13187C62.3106 1.71269 61.4554 2.63231 61.4554 4.06014V4.05409Z" fill="white"/>
<path fill-rule="evenodd" clip-rule="evenodd" d="M107.434 14.6652H115.943C116.242 14.6652 116.199 14.4837 116.311 14.2357L117.116 12.4751H110.418V8.35493H116.299V6.16478H110.599V2.39555H116.392C116.473 2.04464 116.623 1.73609 116.742 1.42148C116.86 1.10687 117.085 0.713617 117.116 0.380859H107.434V14.6773V14.6652Z" fill="white"/>
<path fill-rule="evenodd" clip-rule="evenodd" d="M128.884 2.1242C128.884 2.32386 128.946 2.39041 129.159 2.39041H134.047V14.5814H137.393C137.393 12.5244 137.299 10.7638 137.299 8.70675V2.39041H142.006C142.3 2.39041 142.256 2.25126 142.344 2.0153C142.443 1.7491 142.475 1.6765 142.562 1.44054C142.699 1.07148 142.83 0.641923 143.005 0.291016H128.884V2.13025V2.1242Z" fill="white"/>
<path fill-rule="evenodd" clip-rule="evenodd" d="M4.34609 8.52565V4.40551C7.25524 4.40551 9.53387 3.65529 11.1383 5.98459C11.2756 6.18425 11.5878 6.72271 11.5878 7.03731V11.4237H7.51744C6.1565 11.4237 4.35233 9.87483 4.35233 8.5317L4.34609 8.52565ZM2.17358 2.47552L2.26098 8.26549C2.25474 9.96558 2.88527 11.2845 4.26493 12.2888C4.88921 12.7426 6.1128 13.4384 7.14911 13.4384H13.573V6.77111C13.573 6.25685 13.1422 5.45823 12.9362 5.10732C12.1184 3.72789 10.2206 2.38477 8.59745 2.38477C6.36252 2.38477 4.421 2.46947 2.17358 2.46947V2.47552Z" fill="white"/>
<path fill-rule="evenodd" clip-rule="evenodd" d="M17.1063 20.6307V16.7707H21.3577C22.5501 16.7707 24.4354 18.1683 24.4354 19.8382V23.7828H22.5376C20.8333 23.7828 19.9967 24.0914 18.7669 23.3109C18.0053 22.8269 17.1063 21.7924 17.1063 20.6247V20.6307ZM15.2085 21.4172C15.2085 22.8753 17.0564 24.9142 18.9979 25.5495C20.1778 25.9367 21.1891 25.7128 22.6312 25.7128C23.1494 25.7128 26.4019 25.852 26.5704 25.5858L26.5205 19.9229C26.5205 19.0214 26.5018 18.8036 26.2645 18.1562C25.6028 16.3835 23.4303 14.75 21.726 14.75H15.2085V21.4172Z" fill="white"/>
<path fill-rule="evenodd" clip-rule="evenodd" d="M120.375 14.5816H129.877C129.97 14.1944 130.869 12.8634 130.963 12.4762C129.92 12.4762 129.209 12.3915 128.16 12.3915H123.546V0.551362C123.546 0.351708 123.484 0.285156 123.272 0.285156H120.375V14.5816Z" fill="white"/>
<path fill-rule="evenodd" clip-rule="evenodd" d="M85.6212 6.33529H80.7331C80.4584 6.33529 80.3336 6.77695 80.1151 7.31541C79.9465 7.71472 79.6593 8.06562 79.6469 8.53148H85.5276V14.5816H88.6927V0.285156H85.615V6.33529H85.6212Z" fill="white"/>
<path fill-rule="evenodd" clip-rule="evenodd" d="M54.7567 14.5806H58.0155V0.459565C58.0155 0.259911 57.953 0.193359 57.7408 0.193359H54.7567V14.5806Z" fill="white"/>
<path fill-rule="evenodd" clip-rule="evenodd" d="M75.3019 14.6665H78.5606V0.545503C78.5606 0.345848 78.4982 0.279297 78.2859 0.279297H75.3019V14.6665Z" fill="white"/>
<path fill-rule="evenodd" clip-rule="evenodd" d="M39.6428 23.3544C39.6428 24.032 39.8738 24.8185 40.0923 25.2844C40.8477 26.8695 42.7143 28.0009 44.712 28.0009C46.9594 28.0009 48.595 27.1297 49.2755 25.2299C49.3941 24.9032 49.4628 24.6673 49.5065 24.3103C49.6501 23.1366 50.162 23.4391 45.7983 23.4391C45.4299 23.4391 45.5236 23.7114 45.5236 24.4071H48.4202C48.4202 25.7987 46.7971 27.0389 45.3425 27.0389C43.888 27.0389 43.1138 27.0147 41.9027 25.9862C40.6604 24.9335 40.3295 22.943 41.1786 21.5152C42.3897 19.4884 45.2676 18.8955 47.5775 20.5713C47.8584 20.777 48.0831 21.0069 48.3266 21.1643L48.9759 20.4806C48.5888 19.9361 47.2778 19.1798 46.5536 18.9378C43.3074 17.8427 39.6366 19.8998 39.6366 23.3605L39.6428 23.3544Z" fill="white"/>
<path fill-rule="evenodd" clip-rule="evenodd" d="M63.8962 27.0383H63.0784C61.3741 27.0383 59.6386 25.3685 59.6386 23.7047V23.0029C59.6386 20.1956 63.6153 18.3866 66.0874 20.5223C67.7293 21.9441 67.7168 24.6122 66.3184 25.9614C66.1249 26.1429 65.5755 26.5301 65.3133 26.6571C64.9325 26.8386 64.4206 27.0383 63.8962 27.0383ZM63.2595 28.0003C65.3758 28.0003 66.874 27.1653 67.8417 25.5076C68.5471 24.3036 68.4972 22.416 67.823 21.1273C66.4745 18.5621 62.4916 17.6424 60.0756 19.9959C56.7794 23.2086 59.4201 28.0003 63.2657 28.0003H63.2595Z" fill="white"/>
<path fill-rule="evenodd" clip-rule="evenodd" d="M53.04 22.7378H52.3159V19.755C53.271 19.755 54.8629 19.6219 55.4997 20.0878C56.5235 20.838 56.1739 22.2416 55.1813 22.6168C54.5383 22.8588 53.5769 22.7378 53.04 22.7378ZM51.3232 27.8259C52.6842 27.8259 52.3221 28.4309 52.3221 23.7058C52.8215 23.7058 52.7778 23.6876 53.09 24.1051L53.914 25.1457C54.1013 25.3817 54.17 25.4422 54.3573 25.6842C54.9316 26.4283 55.5184 27.0817 56.0366 27.8259H57.2102C56.9855 27.4085 56.742 27.1906 56.4486 26.8095L53.9515 23.6997C54.8504 23.6997 55.687 23.5485 56.1926 23.1492C57.5224 22.0904 57.4974 19.991 55.7681 19.1319C54.9129 18.7084 52.5593 18.787 51.3295 18.787V27.8199L51.3232 27.8259Z" fill="white"/>
<path fill-rule="evenodd" clip-rule="evenodd" d="M70.1453 19.0523V24.5761C70.1453 25.653 70.3139 26.4516 70.8882 27.0143C71.6873 27.7887 72.2554 28.0004 73.4915 28.0004C75.1396 28.0004 76.2945 26.5908 76.2945 24.933V18.7921C75.0272 18.7921 75.2956 18.4896 75.2956 21.073C75.2956 22.0229 75.4267 25.3626 75.1208 25.9857C74.3467 27.5709 71.9183 27.1776 71.3751 26.1007C70.9694 25.296 71.1254 21.1214 71.1317 19.8449C71.1379 18.7861 71.3002 18.7921 70.4075 18.7921C70.2015 18.7921 70.1328 18.8526 70.1328 19.0583L70.1453 19.0523Z" fill="white"/>
<path fill-rule="evenodd" clip-rule="evenodd" d="M81.0079 22.8277C80.4148 22.8277 80.1276 22.737 79.4721 22.737V19.7543C80.4335 19.7543 82.1066 19.6151 82.7496 20.087C82.9244 20.2141 83.0555 20.3593 83.1554 20.571C83.8483 21.9626 82.7683 22.8277 81.0079 22.8277ZM78.4733 19.0585V27.565C78.4733 27.9219 78.7542 27.8312 79.4721 27.8312V23.711C81.4261 23.711 84.3603 23.9531 84.3603 21.2547C84.3603 18.4172 80.8705 18.7983 78.748 18.7983C78.5419 18.7983 78.4733 18.8588 78.4733 19.0645V19.0585Z" fill="white"/>
</g>
<defs>
<clipPath id="clip0_20035_4782">
<rect width="143" height="28" fill="white"/>
</clipPath>
</defs>
</svg>
