<svg width="64" height="64" viewBox="0 0 64 64" fill="none" xmlns="http://www.w3.org/2000/svg">
<rect x="0.5" y="0.5" width="63" height="63" rx="31.5" stroke="white"/>
<g clip-path="url(#clip0_21312_716)">
<path d="M32.3125 23.9375C32.353 23.9401 32.3936 23.9426 32.4353 23.9453C33.1955 23.9976 33.9012 24.1384 34.625 24.375C34.6962 24.3981 34.7674 24.4213 34.8408 24.4451C35.7377 24.7643 36.5211 25.271 37.25 25.875C37.327 25.9376 37.327 25.9376 37.4055 26.0015C38.5359 26.9581 39.3413 28.3382 39.75 29.75C39.7778 29.841 39.7778 29.841 39.8062 29.9338C40.0165 30.6824 40.1144 31.5353 40.0625 32.3125C40.0599 32.353 40.0574 32.3936 40.0547 32.4353C40.0024 33.1955 39.8616 33.9012 39.625 34.625C39.6019 34.6962 39.5788 34.7674 39.5549 34.8408C38.8335 36.8678 37.2388 38.4553 35.3173 39.3697C34.2034 39.8729 32.9126 40.1444 31.6875 40.0625C31.6272 40.0587 31.6272 40.0587 31.5657 40.0547C29.7688 39.9301 28.1197 39.3078 26.75 38.125C26.7027 38.086 26.6554 38.047 26.6067 38.0068C25.4707 37.0449 24.6611 35.6699 24.25 34.25C24.2315 34.1893 24.2129 34.1287 24.1939 34.0662C23.9836 33.3176 23.8856 32.4647 23.9375 31.6875C23.9401 31.647 23.9426 31.6065 23.9453 31.5647C23.9976 30.8045 24.1384 30.0988 24.375 29.375C24.3981 29.3038 24.4213 29.2326 24.4451 29.1592C24.7643 28.2623 25.271 27.4789 25.875 26.75C25.9167 26.6987 25.9585 26.6474 26.0015 26.5945C26.9581 25.4641 28.3382 24.6587 29.75 24.25C29.8107 24.2315 29.8713 24.2129 29.9338 24.1939C30.6824 23.9836 31.5353 23.8856 32.3125 23.9375Z" fill="white"/>
<path d="M33.066 42.7022C33.457 43.0571 33.5945 43.5032 33.6366 44.0197C33.6411 44.1694 33.6421 44.3186 33.6414 44.4683C33.6416 44.5502 33.6416 44.5502 33.6418 44.6338C33.6418 44.7485 33.6416 44.8631 33.6411 44.9778C33.6404 45.1515 33.6411 45.3252 33.6419 45.499C33.6418 45.6112 33.6416 45.7233 33.6414 45.8355C33.6416 45.8866 33.6419 45.9377 33.6422 45.9903C33.6372 46.6079 33.5487 47.1545 33.1248 47.6248C32.6373 48.011 32.1736 48.0486 31.5623 47.9998C31.1418 47.8801 30.8836 47.6018 30.6131 47.2694C30.3718 46.8285 30.3557 46.3294 30.3582 45.8355C30.3581 45.7809 30.3579 45.7262 30.3578 45.6699C30.3577 45.5554 30.358 45.4408 30.3585 45.3263C30.3592 45.1524 30.3585 44.9785 30.3577 44.8046C30.3578 44.6925 30.3579 44.5804 30.3582 44.4683C30.3579 44.4172 30.3577 44.366 30.3574 44.3132C30.3622 43.711 30.4705 43.2115 30.8748 42.7498C31.5245 42.1876 32.3841 42.1985 33.066 42.7022Z" fill="white"/>
<path d="M32.7224 16.1055C33.0834 16.3248 33.422 16.6581 33.5376 17.0733C33.6119 17.4408 33.6432 17.7898 33.6414 18.1643C33.6416 18.2463 33.6416 18.2463 33.6418 18.3299C33.6418 18.4445 33.6416 18.559 33.6411 18.6736C33.6404 18.8475 33.6411 19.0213 33.6419 19.1952C33.6418 19.3073 33.6416 19.4194 33.6414 19.5315C33.6416 19.5827 33.6419 19.6339 33.6422 19.6866C33.6373 20.2897 33.5284 20.7871 33.1248 21.25C32.7548 21.5828 32.2803 21.7049 31.7881 21.6799C31.3656 21.6084 30.9925 21.3957 30.7119 21.0715C30.3961 20.6074 30.3555 20.0799 30.3582 19.5315C30.3581 19.4769 30.3579 19.4223 30.3578 19.366C30.3577 19.2514 30.358 19.1367 30.3585 19.0221C30.3592 18.8483 30.3585 18.6746 30.3577 18.5009C30.3578 18.3887 30.3579 18.2765 30.3582 18.1643C30.3578 18.0877 30.3578 18.0877 30.3574 18.0096C30.3623 17.392 30.4509 16.8453 30.8748 16.375C31.3866 15.9696 32.1104 15.8147 32.7224 16.1055Z" fill="white"/>
<path d="M24.2852 38.9803C24.6734 39.2162 24.9807 39.5668 25.1251 39.9999C25.172 40.6051 25.1591 41.0401 24.7616 41.5085C24.4122 41.8959 24.0542 42.2737 23.6869 42.644C23.6245 42.7071 23.5625 42.7704 23.5008 42.834C22.9916 43.3581 22.5519 43.7572 21.8047 43.8319C21.2939 43.7907 20.8672 43.6226 20.523 43.2372C20.2277 42.8491 20.1302 42.4194 20.1876 41.9374C20.3795 41.1451 21.0737 40.6009 21.6292 40.0432C21.7233 39.9485 21.8167 39.8532 21.9101 39.7578C22.5477 39.1132 23.3405 38.5315 24.2852 38.9803Z" fill="white"/>
<path d="M22.6696 20.439C23.0847 20.7429 23.4419 21.1083 23.804 21.4717C23.9178 21.5857 24.0324 21.6988 24.1471 21.8119C24.2208 21.8855 24.2944 21.959 24.3679 22.0326C24.4017 22.0658 24.4354 22.099 24.4701 22.1331C24.8816 22.5496 25.1323 22.9478 25.1445 23.5429C25.1405 24.0339 25.0431 24.3053 24.7266 24.6718C24.2063 25.1177 23.7974 25.1759 23.125 25.1249C22.425 24.9525 21.8526 24.1795 21.3559 23.6867C21.2928 23.6244 21.2295 23.5624 21.1659 23.5006C20.6648 23.0139 20.2312 22.5607 20.168 21.8398C20.1762 21.3965 20.3328 20.9605 20.6289 20.6288C21.2064 20.1122 22.0106 20.0448 22.6696 20.439Z" fill="white"/>
<path d="M41.1406 38.9651C41.7033 39.3227 42.1723 39.8454 42.6441 40.3134C42.7072 40.3757 42.7705 40.4378 42.8341 40.4995C43.3582 41.0087 43.7573 41.4484 43.832 42.1955C43.7923 42.6879 43.6314 43.1384 43.2576 43.4729C42.8879 43.7234 42.4461 43.8705 42 43.8127C41.2312 43.6433 40.7314 43.0658 40.196 42.5284C40.0822 42.4144 39.9676 42.3013 39.8529 42.1882C39.7792 42.1147 39.7056 42.0411 39.6321 41.9675C39.5983 41.9344 39.5646 41.9012 39.5299 41.867C39.1184 41.4506 38.8677 41.0523 38.8555 40.4573C38.8595 39.9662 38.9569 39.6949 39.2734 39.3284C39.7916 38.8842 40.4778 38.6656 41.1406 38.9651Z" fill="white"/>
<path d="M43.2573 20.5272C43.6287 20.8594 43.7809 21.3029 43.8395 21.7889C43.725 22.6728 43.1312 23.2028 42.5279 23.8038C42.4139 23.9176 42.3008 24.0322 42.1877 24.1469C42.1142 24.2206 42.0406 24.2942 41.967 24.3677C41.9338 24.4015 41.9007 24.4352 41.8665 24.47C41.45 24.8815 41.0518 25.1321 40.4567 25.1443C39.9657 25.1403 39.6944 25.0429 39.3278 24.7264C38.8819 24.2061 38.8237 23.7972 38.8747 23.1248C39.0471 22.4248 39.8201 21.8525 40.3129 21.3557C40.3752 21.2926 40.4372 21.2293 40.499 21.1657C41.2864 20.3552 42.1817 19.7982 43.2573 20.5272Z" fill="white"/>
<path d="M44.4685 30.3582C44.5504 30.358 44.5504 30.358 44.634 30.3578C44.7486 30.3577 44.8633 30.358 44.9779 30.3585C45.1517 30.3592 45.3254 30.3585 45.4991 30.3577C45.6113 30.3578 45.7235 30.3579 45.8357 30.3582C45.9123 30.3578 45.9123 30.3578 45.9904 30.3574C46.6081 30.3623 47.1547 30.4509 47.625 30.8748C48.0112 31.3623 48.0488 31.826 48 32.4373C47.8588 32.933 47.4915 33.2386 47.0625 33.4998C46.8762 33.5619 46.7486 33.5716 46.5538 33.5743C46.4883 33.5753 46.4227 33.5764 46.3552 33.5774C46.0546 33.5802 45.7539 33.5827 45.4532 33.5842C45.2951 33.5852 45.1369 33.5869 44.9788 33.5893C44.7501 33.5927 44.5215 33.5941 44.2927 33.595C44.2227 33.5964 44.1527 33.5978 44.0806 33.5993C43.6176 33.5981 43.2584 33.5195 42.875 33.2498C42.5153 32.8717 42.323 32.4649 42.3125 31.9373C42.3512 31.4535 42.5597 31.031 42.9285 30.7119C43.3926 30.3961 43.9201 30.3555 44.4685 30.3582Z" fill="white"/>
<path d="M18.1645 30.3582C18.2192 30.3581 18.2738 30.3579 18.3301 30.3578C18.4447 30.3577 18.5592 30.358 18.6738 30.3585C18.8477 30.3592 19.0215 30.3585 19.1954 30.3577C19.3075 30.3578 19.4196 30.3579 19.5317 30.3582C19.5829 30.3579 19.6341 30.3577 19.6868 30.3574C20.2899 30.3622 20.7873 30.4712 21.2502 30.8748C21.583 31.2448 21.7051 31.7193 21.6801 32.2115C21.6085 32.6346 21.3963 33.0217 21.0586 33.2898C20.7656 33.4776 20.5281 33.5696 20.177 33.5734C20.1111 33.5742 20.0452 33.575 19.9772 33.5758C19.9059 33.5762 19.8346 33.5767 19.7612 33.5772C19.6877 33.5777 19.6143 33.5782 19.5386 33.5787C19.3829 33.5796 19.2272 33.5802 19.0716 33.5807C18.8343 33.5818 18.597 33.5846 18.3597 33.5873C18.2084 33.5879 18.0571 33.5885 17.9057 33.5889C17.7997 33.5905 17.7997 33.5905 17.6916 33.5922C17.1782 33.5908 16.8432 33.5006 16.4533 33.1639C16.0586 32.7034 15.9777 32.3789 15.9826 31.7825C16.0187 31.3302 16.2213 31.0424 16.5627 30.7498C17.0247 30.3737 17.5901 30.3553 18.1645 30.3582Z" fill="white"/>
</g>
<defs>
<clipPath id="clip0_21312_716">
<rect width="32" height="32" fill="white" transform="translate(16 16)"/>
</clipPath>
</defs>
</svg>
