<svg width="32" height="32" viewBox="0 0 32 32" fill="none" xmlns="http://www.w3.org/2000/svg">
<g clip-path="url(#clip0_21628_729)">
<path d="M13.1641 9.6681C13.2248 9.66823 13.2854 9.66837 13.3479 9.66851C14.2434 9.6717 15.1202 9.6934 16 9.87513C16.0615 9.88755 16.1229 9.89996 16.1862 9.91276C18.8303 10.4627 21.2397 11.616 23.1875 13.5001C23.2188 13.5298 23.25 13.5594 23.2822 13.5899C24.6611 14.8988 25.6091 16.5502 26.125 18.3751C26.1393 18.4251 26.1535 18.475 26.1681 18.5265C26.3705 19.277 26.399 20.0245 26.4024 20.797C26.4028 20.8426 26.4032 20.8882 26.4036 20.9351C26.4142 22.899 25.7589 24.9341 24.5625 26.5001C24.5382 26.5329 24.5139 26.5657 24.4888 26.5996C22.3896 29.426 19.1774 31.4022 15.6875 31.9376C15.6251 31.9482 15.5626 31.9587 15.4982 31.9696C15.211 32.0049 14.9314 32.0094 14.6424 32.0093C14.5823 32.0096 14.5222 32.0098 14.4603 32.01C14.2595 32.0107 14.0588 32.011 13.8581 32.0112C13.7139 32.0116 13.5697 32.012 13.4256 32.0124C12.9529 32.0137 12.4803 32.0144 12.0076 32.015C11.8448 32.0153 11.682 32.0155 11.5192 32.0158C10.8423 32.0168 10.1654 32.0178 9.48851 32.0182C9.31316 32.0183 9.13781 32.0185 8.96246 32.0186C8.91888 32.0186 8.87531 32.0186 8.83041 32.0187C8.12361 32.0192 7.41682 32.0208 6.71003 32.0228C5.98384 32.0249 5.25765 32.026 4.53146 32.0262C4.12393 32.0263 3.71641 32.0269 3.30889 32.0285C2.92583 32.0299 2.54279 32.0302 2.15973 32.0295C2.01909 32.0295 1.87845 32.0299 1.73781 32.0308C1.54595 32.0319 1.35415 32.0314 1.16229 32.0306C1.07866 32.0316 1.07865 32.0316 0.993329 32.0327C0.652662 32.0292 0.457551 31.9776 0.187546 31.7501C-0.0308453 31.4668 -0.0394567 31.2227 -0.0292512 30.8744C0.0185671 30.5696 0.166171 30.4055 0.375046 30.1876C0.464966 30.0874 0.554805 29.9872 0.644577 29.8868C0.717208 29.8074 0.717208 29.8074 0.791305 29.7264C0.934234 29.5663 1.06908 29.4021 1.20317 29.2345C1.46489 28.9105 1.74421 28.6062 2.03026 28.3038C2.21768 28.1051 2.39523 27.904 2.56255 27.6876C2.46883 27.4749 2.34432 27.3227 2.19145 27.1486C1.26443 26.0266 0.613476 24.6543 0.250046 23.2501C0.236903 23.2004 0.223761 23.1506 0.21022 23.0994C-0.300485 21.0756 -0.0790784 18.8407 0.750046 16.9376C0.768636 16.8949 0.787227 16.8522 0.806381 16.8082C1.26723 15.7759 1.9184 14.8267 2.68755 14.0001C2.72394 13.961 2.76034 13.9219 2.79784 13.8815C5.47927 11.0333 9.29954 9.65263 13.1641 9.6681ZM6.00005 19.5001C5.68202 20.0001 5.64222 20.4772 5.68755 21.0626C5.8013 21.5079 6.07111 21.9031 6.45512 22.1569C6.97684 22.4533 7.51017 22.5468 8.10478 22.3949C8.66497 22.1617 8.9986 21.7956 9.25005 21.2501C9.39102 20.8272 9.38294 20.2922 9.21098 19.879C8.96775 19.4183 8.63184 19.0627 8.13994 18.87C7.31153 18.6352 6.56452 18.8667 6.00005 19.5001ZM11.6875 19.5001C11.3695 20.0001 11.3297 20.4772 11.375 21.0626C11.4888 21.5079 11.7586 21.9031 12.1426 22.1569C12.6643 22.4533 13.1977 22.5468 13.7923 22.3949C14.3525 22.1617 14.6861 21.7956 14.9375 21.2501C15.0785 20.8272 15.0704 20.2922 14.8985 19.879C14.6552 19.4183 14.3193 19.0627 13.8274 18.87C12.999 18.6352 12.252 18.8667 11.6875 19.5001ZM17.375 19.5001C17.057 20.0001 17.0172 20.4772 17.0625 21.0626C17.1763 21.5079 17.4461 21.9031 17.8301 22.1569C18.3518 22.4533 18.8852 22.5468 19.4798 22.3949C20.04 22.1617 20.3736 21.7956 20.625 21.2501C20.766 20.8272 20.7579 20.2922 20.586 19.879C20.3427 19.4183 20.0068 19.0627 19.5149 18.87C18.6865 18.6352 17.9395 18.8667 17.375 19.5001Z" fill="white"/>
<path d="M22.5 0.18764C22.5884 0.206266 22.5884 0.206266 22.6786 0.225268C23.9737 0.505849 25.2103 0.928687 26.375 1.56264C26.412 1.58227 26.449 1.6019 26.4871 1.62212C28.9393 2.92624 30.8389 5.09937 31.6875 7.75014C32.1302 9.28382 32.2014 11.0824 31.75 12.6251C31.7299 12.696 31.7299 12.696 31.7094 12.7683C31.3338 14.0645 30.7269 15.2291 29.8374 16.247C29.7265 16.3837 29.7265 16.3837 29.75 16.6251C29.8541 16.7689 29.8541 16.7689 29.9961 16.9103C30.2043 17.1322 30.403 17.3567 30.5938 17.5939C30.7766 17.82 30.9641 18.0392 31.1602 18.254C32.024 19.2029 32.024 19.2029 32.0176 19.8759C31.9941 20.1254 31.9218 20.2566 31.75 20.4376C31.5263 20.5955 31.3766 20.6484 31.1037 20.6464C31.0061 20.6464 31.0061 20.6464 30.9066 20.6464C30.8024 20.6449 30.8024 20.6449 30.696 20.6434C30.6243 20.6432 30.5527 20.6429 30.4788 20.6426C30.2502 20.6416 30.0216 20.6392 29.793 20.6369C29.6378 20.6359 29.4827 20.6351 29.3275 20.6343C28.9475 20.6322 28.5675 20.6291 28.1875 20.6251C28.1843 20.5848 28.1811 20.5445 28.1778 20.503C28.1629 20.3169 28.1475 20.131 28.1321 19.945C28.1271 19.8816 28.1221 19.8182 28.1169 19.7529C28.0667 19.155 27.9596 18.5811 27.8125 18.0001C27.8013 17.9552 27.7901 17.9103 27.7786 17.8641C27.5953 17.1452 27.3233 16.4793 27 15.8126C26.9784 15.7678 26.9568 15.723 26.9346 15.6769C26.4296 14.6427 25.764 13.7324 25 12.8751C24.9561 12.8255 24.9561 12.8255 24.9113 12.7748C24.5667 12.3858 24.2164 12.0162 23.8125 11.6876C23.781 11.6613 23.7494 11.6349 23.7169 11.6077C20.3475 8.78835 15.9176 7.57515 11.5707 7.95323C10.5676 8.04854 9.6014 8.25628 8.625 8.50014C8.51677 8.52678 8.40854 8.55339 8.30029 8.57997C8.07492 8.63562 7.84985 8.6924 7.625 8.75014C7.88 6.52798 9.35117 4.36685 11.0691 2.9888C12.4546 1.89695 13.9397 1.08886 15.625 0.56264C15.696 0.540418 15.696 0.540418 15.7683 0.517748C17.8663 -0.12248 20.3469 -0.276234 22.5 0.18764Z" fill="white"/>
</g>
<defs>
<clipPath id="clip0_21628_729">
<rect width="32" height="32" fill="white"/>
</clipPath>
</defs>
</svg>
