<svg width="32" height="32" viewBox="0 0 32 32" fill="none" xmlns="http://www.w3.org/2000/svg">
<path d="M1.61358 15.1247C1.82316 15.2399 1.95403 15.3815 1.99133 15.5546C1.99617 15.6129 1.9975 15.6709 1.99715 15.7293C1.99737 15.7506 1.99758 15.7719 1.9978 15.7939C1.99806 15.8388 1.99801 15.8836 1.99766 15.9284C1.99731 15.9964 1.99848 16.0643 1.99977 16.1322C2.00162 16.4054 2.00001 16.6434 1.66949 16.8484C1.43141 16.9631 1.17794 17.0095 0.876605 16.9984C0.567601 16.9701 0.360018 16.8951 0.15901 16.7494C0.0148844 16.6065 0.0137366 16.4606 0.0112978 16.2979C0.0108342 16.2738 0.0103707 16.2496 0.00989312 16.2247C0.00912708 16.1737 0.00859426 16.1226 0.00828 16.0716C0.00749178 15.9942 0.0049676 15.9168 0.00240328 15.8394C-0.00561524 15.3848 -0.00561525 15.3848 0.205289 15.2161C0.290893 15.1628 0.36975 15.1209 0.477623 15.0857C0.510801 15.0743 0.543979 15.0629 0.578163 15.0512C0.920096 14.9609 1.31157 14.9929 1.61358 15.1247Z" fill="white"/>
<path d="M6.54031 15.0261C6.74138 15.0569 6.90071 15.0922 6.97863 15.1399C6.99046 15.1632 6.98995 15.1863 6.9895 15.2097C6.98969 15.2167 6.98987 15.2237 6.99006 15.2309C6.99057 15.2545 6.99051 15.278 6.99044 15.3015C6.99068 15.3184 6.99096 15.3353 6.99127 15.3522C6.99199 15.398 6.99218 15.4438 6.99223 15.4897C6.99231 15.528 6.99261 15.5662 6.99289 15.6045C6.99356 15.6948 6.99375 15.7851 6.9937 15.8754C6.99365 15.9685 6.99451 16.0617 6.99579 16.1548C6.99685 16.2348 6.99729 16.3147 6.99724 16.3947C6.99722 16.4425 6.99745 16.4902 6.99831 16.538C6.9991 16.5829 6.9991 16.6278 6.99851 16.6728C6.99843 16.6892 6.99862 16.7057 6.99911 16.7222C6.99974 16.7447 6.99936 16.7672 6.99873 16.7897C6.99915 16.7962 6.99957 16.8027 7 16.8094C6.99675 16.8624 6.9166 16.9034 6.73613 16.9434C6.70966 16.9477 6.68319 16.9519 6.65593 16.9563C6.62956 16.9607 6.6032 16.9651 6.57604 16.9696C6.31188 17.0049 6.02831 17.0022 5.71831 16.9968C5.46938 16.9841 5.28212 16.9523 5.14913 16.9099C5.04406 16.8631 5.0094 16.8258 5.01112 16.7751C5.01075 16.7647 5.01075 16.7647 5.01037 16.7541C5.0097 16.731 5.00989 16.7079 5.01009 16.6848C5.00979 16.6682 5.00944 16.6516 5.00904 16.6349C5.00814 16.5899 5.00802 16.5449 5.0081 16.4998C5.0081 16.4622 5.00776 16.4245 5.00742 16.3869C5.00663 16.2981 5.00652 16.2092 5.00679 16.1204C5.00706 16.0289 5.00613 15.9373 5.00462 15.8458C5.00338 15.7671 5.00291 15.6884 5.00307 15.6097C5.00316 15.5628 5.00294 15.5158 5.00194 15.4689C5.00103 15.4247 5.00111 15.3805 5.00194 15.3364C5.00207 15.3202 5.00187 15.304 5.00129 15.2878C4.99567 15.1201 4.99567 15.1201 5.28765 15.0563C5.61735 14.9972 6.14607 14.9805 6.54031 15.0261Z" fill="white"/>
<path d="M11.48 16.9898C11.7146 16.9767 11.8597 16.9596 11.946 16.9348C11.9861 16.9188 11.9951 16.904 11.9941 16.8877C11.9943 16.883 11.9943 16.883 11.9945 16.8782C11.9948 16.8677 11.9946 16.8573 11.9943 16.8468C11.9944 16.8392 11.9946 16.8316 11.9948 16.824C11.9952 16.8032 11.9951 16.7823 11.9949 16.7615C11.9948 16.739 11.9952 16.7165 11.9955 16.694C11.996 16.6499 11.9961 16.6059 11.996 16.5618C11.9959 16.526 11.996 16.4902 11.9962 16.4544C11.9962 16.4468 11.9962 16.4468 11.9962 16.439C11.9963 16.4287 11.9963 16.4183 11.9964 16.408C11.9967 16.3385 11.9968 16.269 11.9967 16.1995C11.9967 16.1968 11.9967 16.1941 11.9967 16.1913C11.9966 16.1775 11.9966 16.1638 11.9966 16.15C11.9966 16.1473 11.9966 16.1445 11.9965 16.1417C11.9965 16.1362 11.9965 16.1306 11.9965 16.1251C11.9963 16.0391 11.9966 15.953 11.9973 15.8669C11.9982 15.7703 11.9986 15.6736 11.9984 15.5769C11.9984 15.5257 11.9985 15.4745 11.999 15.4233C11.9995 15.3797 11.9996 15.3361 11.9991 15.2926C11.9988 15.2703 11.9988 15.2481 11.9993 15.2259C11.9997 15.2055 11.9996 15.1851 11.999 15.1648C11.9989 15.1574 11.999 15.1501 11.9993 15.1427C12.0029 15.0548 12.0029 15.0548 11.6912 15.0232C11.4327 15.0009 11.1847 14.9992 10.8435 15.0002C10.5846 15.0029 10.4267 15.0115 10.2468 15.0295C9.95733 15.067 10.0017 15.1131 10.0034 15.1576C10.0033 15.1651 10.0031 15.1727 10.0029 15.1803C10.0024 15.201 10.0026 15.2217 10.003 15.2425C10.0033 15.2649 10.0028 15.2872 10.0025 15.3096C10.002 15.3534 10.0021 15.3973 10.0024 15.4411C10.0027 15.4767 10.0027 15.5123 10.0026 15.5479C10.0026 15.553 10.0026 15.5581 10.0026 15.5633C10.0025 15.5736 10.0025 15.5839 10.0024 15.5942C10.0021 15.688 10.0025 15.7818 10.0031 15.8756C10.0037 15.9612 10.0036 16.0469 10.003 16.1325C10.0024 16.2287 10.0021 16.3249 10.0025 16.4211C10.0025 16.4314 10.0026 16.4417 10.0026 16.4519C10.0026 16.457 10.0026 16.462 10.0027 16.4672C10.0028 16.5028 10.0026 16.5384 10.0023 16.5739C10.002 16.6173 10.0021 16.6606 10.0027 16.704C10.003 16.7261 10.0031 16.7482 10.0027 16.7704C10.0024 16.7906 10.0026 16.8108 10.0032 16.8311C10.0034 16.8384 10.0033 16.8457 10.003 16.8531C9.99988 16.938 9.99988 16.938 10.2745 16.972C10.6 17.0027 11.0728 17.0073 11.48 16.9898Z" fill="white"/>
<path d="M16.5754 15.0267C16.7843 15.0525 16.9556 15.0803 16.9837 15.1213C16.9838 15.1267 16.9839 15.1321 16.984 15.1376C16.9842 15.1439 16.9845 15.1501 16.9848 15.1566C16.9847 15.1634 16.9846 15.1702 16.9845 15.1773C16.9848 15.1882 16.9848 15.1882 16.9852 15.1993C16.9857 15.2195 16.9858 15.2398 16.9858 15.26C16.9859 15.2818 16.9864 15.3036 16.9869 15.3254C16.9878 15.373 16.9881 15.4207 16.9883 15.4684C16.9884 15.4981 16.9887 15.5279 16.989 15.5577C16.9898 15.6401 16.9905 15.7226 16.9906 15.8051C16.9906 15.813 16.9906 15.813 16.9906 15.821C16.9906 15.8317 16.9906 15.8424 16.9907 15.8531C16.9907 15.8611 16.9907 15.8611 16.9907 15.8692C16.9907 15.8745 16.9907 15.8799 16.9907 15.8853C16.9908 15.9714 16.9919 16.0576 16.9935 16.1437C16.995 16.2321 16.9958 16.3206 16.9958 16.409C16.9958 16.4587 16.9962 16.5083 16.9974 16.5579C16.9984 16.6002 16.9987 16.6425 16.998 16.6848C16.9977 16.7063 16.9978 16.7279 16.9987 16.7495C16.9997 16.7729 16.9991 16.7963 16.9984 16.8197C16.9989 16.8264 16.9994 16.8332 17 16.8402C16.9966 16.8881 16.9324 16.9298 16.691 16.9647C16.446 16.9943 16.2094 17.002 15.8957 16.9996C15.5984 16.9943 15.3964 16.9823 15.2095 16.9477C15.0762 16.9207 15.0113 16.8964 15.0109 16.863C15.0107 16.8568 15.0104 16.8505 15.0101 16.8441C15.0102 16.8372 15.0104 16.8304 15.0105 16.8233C15.0103 16.816 15.0101 16.8087 15.0099 16.8012C15.0095 16.781 15.0095 16.7608 15.0096 16.7405C15.0096 16.7187 15.0091 16.6969 15.0087 16.6751C15.0081 16.6323 15.0078 16.5895 15.0078 16.5468C15.0078 16.512 15.0076 16.4773 15.0073 16.4425C15.0066 16.344 15.0062 16.2454 15.0063 16.1469C15.0063 16.1416 15.0063 16.1363 15.0063 16.1308C15.0063 16.1255 15.0063 16.1202 15.0063 16.1147C15.0063 16.0285 15.0056 15.9423 15.0044 15.8561C15.0033 15.7676 15.0027 15.6791 15.0028 15.5905C15.0028 15.5409 15.0026 15.4912 15.0017 15.4415C15.001 15.3992 15.0008 15.3569 15.0013 15.3145C15.0016 15.293 15.0016 15.2714 15.0009 15.2498C15.0001 15.2264 15.0006 15.203 15.0013 15.1796C15.0008 15.1728 15.0004 15.166 15 15.159C15.0027 15.1131 15.0518 15.0823 15.2582 15.0462C15.6449 14.998 16.1326 14.9812 16.5754 15.0267Z" fill="white"/>
<path d="M21.4883 15.0351C21.7424 15.0803 21.8687 15.1416 21.9577 15.2237C22.0051 15.2825 22.0002 15.3413 21.9991 15.4015C21.9993 15.4157 21.9995 15.4299 21.9997 15.4445C22.0001 15.4832 22.0001 15.5219 21.9997 15.5606C21.9994 15.6013 21.9996 15.642 21.9998 15.6826C22.0001 15.751 21.9998 15.8193 21.9992 15.8876C21.9985 15.9663 21.9987 16.045 21.9994 16.1237C22 16.1915 22 16.2594 21.9997 16.3272C21.9995 16.3676 21.9995 16.408 21.9999 16.4484C22.0002 16.4935 21.9997 16.5386 21.9991 16.5837C21.9993 16.5969 21.9996 16.6101 21.9998 16.6237C21.9966 16.7397 21.9393 16.8412 21.6625 16.9266C21.4301 16.9852 21.1887 17.0032 20.8874 16.9995C20.6101 16.9877 20.3936 16.952 20.2163 16.887C20.0631 16.8195 20.0107 16.7608 20.0098 16.6801C20.0096 16.6676 20.0093 16.6552 20.0091 16.6424C20.0091 16.6288 20.009 16.6153 20.009 16.6014C20.0088 16.587 20.0086 16.5727 20.0084 16.5579C20.0079 16.5187 20.0076 16.4794 20.0074 16.4402C20.0073 16.4156 20.0071 16.391 20.0069 16.3665C20.0064 16.2895 20.006 16.2125 20.0058 16.1355C20.0057 16.0468 20.005 15.9582 20.0038 15.8695C20.0029 15.8009 20.0025 15.7322 20.0025 15.6635C20.0024 15.6226 20.0022 15.5817 20.0015 15.5407C20.0008 15.495 20.0009 15.4492 20.0011 15.4035C20.0008 15.3901 20.0004 15.3767 20 15.3628C20.002 15.2481 20.0664 15.1572 20.3363 15.0725C20.6758 14.9853 21.0898 14.9818 21.4883 15.0351Z" fill="white"/>
<path d="M26.5798 15.0265C26.783 15.0515 26.911 15.0742 26.9786 15.1119C26.9908 15.1357 26.9899 15.1594 26.9895 15.1832C26.9897 15.1905 26.9898 15.1977 26.99 15.2052C26.9905 15.2253 26.9905 15.2453 26.9904 15.2654C26.9904 15.2871 26.9909 15.3087 26.9912 15.3304C26.9919 15.3728 26.9921 15.4152 26.9922 15.4577C26.9922 15.4921 26.9924 15.5266 26.9927 15.5611C26.9934 15.6589 26.9938 15.7567 26.9937 15.8546C26.9937 15.8598 26.9937 15.8651 26.9937 15.8705C26.9937 15.8758 26.9937 15.8811 26.9937 15.8865C26.9936 15.9721 26.9944 16.0576 26.9956 16.1431C26.9967 16.231 26.9973 16.3188 26.9972 16.4067C26.9972 16.456 26.9974 16.5053 26.9983 16.5546C26.999 16.5966 26.9992 16.6386 26.9987 16.6806C26.9984 16.702 26.9984 16.7234 26.9991 16.7448C26.9999 16.7681 26.9994 16.7913 26.9987 16.8145C26.9991 16.8213 26.9996 16.828 27 16.8349C26.9971 16.8833 26.9364 16.9198 26.7213 16.9576C26.449 16.9896 26.2316 17.0015 25.8783 16.9998C25.5935 16.9936 25.3736 16.9786 25.1855 16.9469C25.009 16.9062 24.9993 16.8669 25.0018 16.8201C25.0015 16.8127 25.0013 16.8054 25.001 16.7979C25.0005 16.7777 25.0007 16.7575 25.0012 16.7374C25.0015 16.7156 25.001 16.6938 25.0005 16.6719C24.9998 16.6293 25 16.5866 25.0004 16.5439C25.0008 16.5093 25.0008 16.4746 25.0007 16.4399C25.0006 16.435 25.0006 16.43 25.0006 16.4249C25.0005 16.4149 25.0005 16.4048 25.0004 16.3948C25 16.3007 25.0005 16.2067 25.0014 16.1126C25.0021 16.0319 25.002 15.9512 25.0012 15.8706C25.0004 15.7768 25 15.6831 25.0005 15.5893C25.0006 15.5793 25.0006 15.5693 25.0007 15.5593C25.0007 15.5544 25.0007 15.5495 25.0007 15.5444C25.0009 15.5098 25.0006 15.4751 25.0003 15.4405C24.9998 15.3983 24.9999 15.3561 25.0008 15.3139C25.0012 15.2923 25.0014 15.2708 25.0009 15.2493C25.0003 15.2259 25.001 15.2026 25.0018 15.1792C25.0014 15.1724 25.0011 15.1656 25.0007 15.1586C25.0039 15.1107 25.0615 15.0803 25.2797 15.0428C25.6612 14.9967 26.1538 14.9827 26.5798 15.0265Z" fill="white"/>
<path d="M31.6284 15.1154C31.8854 15.2628 31.9815 15.3977 31.9977 15.6133C32.001 15.7123 32.0005 15.8112 31.9979 15.9102C31.9959 15.9872 31.9962 16.064 31.9967 16.141C31.9963 16.1905 31.9957 16.24 31.995 16.2894C31.9951 16.3235 31.9951 16.3235 31.9952 16.3582C31.9883 16.5527 31.9101 16.7198 31.6811 16.8591C31.4526 16.9669 31.1948 17.0092 30.9092 16.9984C30.6049 16.9704 30.3962 16.8966 30.1961 16.7538C30.0398 16.5957 30.0018 16.4503 30.0028 16.2692C30.0026 16.2478 30.0024 16.2265 30.0022 16.2045C30.0019 16.1596 30.002 16.1147 30.0023 16.0697C30.0027 16.0017 30.0015 15.9337 30.0002 15.8657C29.9984 15.592 30 15.3537 30.3302 15.1484C30.7423 14.9494 31.1885 14.963 31.6284 15.1154Z" fill="white"/>
</svg>
