<svg width="32" height="32" viewBox="0 0 32 32" fill="none" xmlns="http://www.w3.org/2000/svg">
<path d="M1.61358 13.3742C1.82316 13.7196 1.95403 14.1446 1.99133 14.6637C1.99617 14.8388 1.9975 15.0126 1.99715 15.1879C1.99737 15.2519 1.99758 15.3158 1.9978 15.3817C1.99806 15.5163 1.99801 15.6508 1.99766 15.7853C1.99731 15.9891 1.99848 16.1928 1.99977 16.3965C2.00162 17.2163 2.00001 17.9301 1.66949 18.5452C1.43141 18.8892 1.17794 19.0285 0.876605 18.9952C0.567601 18.9103 0.360018 18.6852 0.15901 18.2481C0.0148844 17.8196 0.0137366 17.3818 0.0112978 16.8938C0.0108342 16.8213 0.0103707 16.7488 0.00989312 16.6741C0.00912708 16.521 0.00859426 16.3679 0.00828 16.2148C0.00749178 15.9825 0.0049676 15.7504 0.00240328 15.5181C-0.00561524 14.1545 -0.00561525 14.1545 0.205289 13.6483C0.290893 13.4885 0.36975 13.3626 0.477623 13.257C0.510801 13.2229 0.543979 13.1887 0.578163 13.1536C0.920096 12.8826 1.31157 12.9788 1.61358 13.3742Z" fill="white"/>
<path d="M6.54031 7.23518C6.74138 7.51207 6.90071 7.82975 6.97863 8.25939C6.99046 8.46859 6.98995 8.67677 6.9895 8.88686C6.98969 8.95007 6.98987 9.01328 6.99006 9.07841C6.99057 9.29022 6.99051 9.50202 6.99044 9.71384C6.99068 9.8657 6.99096 10.0176 6.99127 10.1694C6.99199 10.582 6.99218 10.9946 6.99223 11.4072C6.99231 11.7516 6.99261 12.096 6.99289 12.4405C6.99356 13.2531 6.99375 14.0658 6.9937 14.8785C6.99365 15.7167 6.99451 16.555 6.99579 17.3932C6.99685 18.1129 6.99729 18.8327 6.99724 19.5524C6.99722 19.9822 6.99745 20.412 6.99831 20.8419C6.9991 21.2462 6.9991 21.6505 6.99851 22.0549C6.99843 22.2031 6.99862 22.3514 6.99911 22.4997C6.99974 22.7024 6.99936 22.905 6.99873 23.1077C6.99915 23.1661 6.99957 23.2245 7 23.2847C6.99675 23.7616 6.9166 24.1303 6.73613 24.4906C6.70966 24.5289 6.68319 24.5672 6.65593 24.6067C6.62956 24.6461 6.6032 24.6855 6.57604 24.7262C6.31188 25.0445 6.02831 25.0197 5.71831 24.9712C5.46938 24.8567 5.28212 24.5704 5.14913 24.1889C5.04406 23.7679 5.0094 23.4326 5.01112 22.9759C5.01075 22.8823 5.01075 22.8823 5.01037 22.7868C5.0097 22.5789 5.00989 22.371 5.01009 22.1632C5.00979 22.0136 5.00944 21.864 5.00904 21.7145C5.00814 21.3091 5.00802 20.9037 5.0081 20.4983C5.0081 20.1596 5.00776 19.8208 5.00742 19.482C5.00663 18.6826 5.00652 17.8832 5.00679 17.0838C5.00706 16.2599 5.00613 15.436 5.00462 14.6121C5.00338 13.9039 5.00291 13.1958 5.00307 12.4877C5.00316 12.065 5.00294 11.6425 5.00194 11.2199C5.00103 10.8223 5.00111 10.4249 5.00194 10.0274C5.00207 9.88178 5.00187 9.73621 5.00129 9.59065C4.99567 8.08124 4.99567 8.08124 5.28765 7.5068C5.61735 6.9745 6.14607 6.82464 6.54031 7.23518Z" fill="white"/>
<path d="M11.48 0.162455C11.7146 0.372399 11.8597 0.645937 11.946 1.04367C11.9861 1.29945 11.9951 1.53588 11.9941 1.79711C11.9943 1.87217 11.9943 1.87217 11.9945 1.94875C11.9948 2.11636 11.9946 2.28396 11.9943 2.45157C11.9944 2.57298 11.9946 2.69439 11.9948 2.8158C11.9952 3.1494 11.9951 3.48299 11.9949 3.81658C11.9948 4.17638 11.9952 4.53616 11.9955 4.89596C11.996 5.60081 11.9961 6.30566 11.996 7.01051C11.9959 7.58335 11.996 8.15619 11.9962 8.72903C11.9962 8.85126 11.9962 8.85126 11.9962 8.97596C11.9963 9.14149 11.9963 9.30702 11.9964 9.47255C11.9967 10.5842 11.9968 11.6959 11.9967 12.8075C11.9967 12.851 11.9967 12.8945 11.9967 12.9393C11.9966 13.1596 11.9966 13.3799 11.9966 13.6002C11.9966 13.644 11.9966 13.6877 11.9965 13.7328C11.9965 13.8213 11.9965 13.9098 11.9965 13.9983C11.9963 15.3751 11.9966 16.752 11.9973 18.1288C11.9982 19.6758 11.9986 21.2229 11.9984 22.7699C11.9984 23.589 11.9985 24.4081 11.999 25.2272C11.9995 25.9244 11.9996 26.6217 11.9991 27.319C11.9988 27.6748 11.9988 28.0306 11.9993 28.3864C11.9997 28.7121 11.9996 29.0378 11.999 29.3635C11.9989 29.4814 11.999 29.5992 11.9993 29.717C12.0029 31.1234 12.0029 31.1234 11.6912 31.6293C11.4327 31.9852 11.1847 32.0128 10.8435 31.9965C10.5846 31.9537 10.4267 31.8157 10.2468 31.5284C9.95733 30.9286 10.0017 30.1909 10.0034 29.4788C10.0033 29.3578 10.0031 29.2367 10.0029 29.1157C10.0024 28.7839 10.0026 28.4522 10.003 28.1204C10.0033 27.7623 10.0028 27.4042 10.0025 27.046C10.002 26.3448 10.0021 25.6436 10.0024 24.9424C10.0027 24.3726 10.0027 23.8027 10.0026 23.2329C10.0026 23.1517 10.0026 23.0706 10.0026 22.9871C10.0025 22.8223 10.0025 22.6575 10.0024 22.4927C10.0021 20.9917 10.0025 19.4908 10.0031 17.9898C10.0037 16.6201 10.0036 15.2503 10.003 13.8805C10.0024 12.341 10.0021 10.8014 10.0025 9.26182C10.0025 9.09767 10.0026 8.93351 10.0026 8.76935C10.0026 8.68858 10.0026 8.60782 10.0027 8.5246C10.0028 7.95538 10.0026 7.38616 10.0023 6.81694C10.002 6.12332 10.0021 5.4297 10.0027 4.73608C10.003 4.38217 10.0031 4.02827 10.0027 3.67437C10.0024 3.35038 10.0026 3.02641 10.0032 2.70243C10.0034 2.58524 10.0033 2.46806 10.003 2.35088C9.99988 0.991544 9.99988 0.991543 10.2745 0.447764C10.6 -0.0438071 11.0728 -0.117555 11.48 0.162455Z" fill="white"/>
<path d="M16.5754 4.32016C16.7843 4.62957 16.9556 4.96382 16.9837 5.45536C16.9838 5.52003 16.9839 5.58469 16.984 5.65132C16.9842 5.72634 16.9845 5.80135 16.9848 5.87864C16.9847 5.96063 16.9846 6.04261 16.9845 6.12708C16.9848 6.25823 16.9848 6.25823 16.9852 6.39202C16.9857 6.63453 16.9858 6.87702 16.9858 7.11952C16.9859 7.38114 16.9864 7.64276 16.9869 7.90438C16.9878 8.47638 16.9881 9.04837 16.9883 9.62037C16.9884 9.97764 16.9887 10.3349 16.989 10.6922C16.9898 11.6817 16.9905 12.6712 16.9906 13.6607C16.9906 13.7556 16.9906 13.7556 16.9906 13.8525C16.9906 13.9809 16.9906 14.1092 16.9907 14.2376C16.9907 14.3331 16.9907 14.3331 16.9907 14.4306C16.9907 14.4944 16.9907 14.5582 16.9907 14.6239C16.9908 15.6573 16.9919 16.6907 16.9935 17.724C16.995 18.7854 16.9958 19.8468 16.9958 20.9081C16.9958 21.5039 16.9962 22.0996 16.9974 22.6954C16.9984 23.2027 16.9987 23.71 16.998 24.2174C16.9977 24.4761 16.9978 24.7348 16.9987 24.9935C16.9997 25.2743 16.9991 25.5552 16.9984 25.8361C16.9989 25.9173 16.9994 25.9985 17 26.0821C16.9966 26.6566 16.9324 27.1579 16.691 27.5761C16.446 27.931 16.2094 28.0243 15.8957 27.995C15.5984 27.9314 15.3964 27.7872 15.2095 27.3729C15.0762 27.048 15.0113 26.7568 15.0109 26.3562C15.0107 26.2811 15.0104 26.206 15.0101 26.1287C15.0102 26.0466 15.0104 25.9645 15.0105 25.8799C15.0103 25.7924 15.0101 25.7049 15.0099 25.6147C15.0095 25.3719 15.0095 25.1291 15.0096 24.8864C15.0096 24.6245 15.0091 24.3626 15.0087 24.1007C15.0081 23.5876 15.0078 23.0745 15.0078 22.5615C15.0078 22.1444 15.0076 21.7273 15.0073 21.3103C15.0066 20.1278 15.0062 18.9453 15.0063 17.7627C15.0063 17.699 15.0063 17.6352 15.0063 17.5696C15.0063 17.5057 15.0063 17.4419 15.0063 17.3761C15.0063 16.3418 15.0056 15.3074 15.0044 14.273C15.0033 13.2109 15.0027 12.1487 15.0028 11.0866C15.0028 10.4903 15.0026 9.89397 15.0017 9.29768C15.001 8.78998 15.0008 8.28228 15.0013 7.77457C15.0016 7.51559 15.0016 7.25664 15.0009 6.99766C15.0001 6.71674 15.0006 6.43585 15.0013 6.15492C15.0008 6.07331 15.0004 5.9917 15 5.90762C15.0027 5.35773 15.0518 4.98779 15.2582 4.55426C15.6449 3.97589 16.1326 3.77403 16.5754 4.32016Z" fill="white"/>
<path d="M21.4883 10.2108C21.7424 10.482 21.8687 10.8497 21.9577 11.3424C22.0051 11.6951 22.0002 12.0476 21.9991 12.4088C21.9993 12.494 21.9995 12.5793 21.9997 12.6672C22.0001 12.8993 22.0001 13.1314 21.9997 13.3635C21.9994 13.6076 21.9996 13.8518 21.9998 14.0959C22.0001 14.5057 21.9998 14.9156 21.9992 15.3254C21.9985 15.7976 21.9987 16.2698 21.9994 16.7421C22 17.1491 22 17.5562 21.9997 17.9633C21.9995 18.2057 21.9995 18.4481 21.9999 18.6905C22.0002 18.9611 21.9997 19.2316 21.9991 19.5021C21.9993 19.5813 21.9996 19.6605 21.9998 19.742C21.9966 20.4381 21.9393 21.047 21.6625 21.5596C21.4301 21.9112 21.1887 22.0192 20.8874 21.9973C20.6101 21.9264 20.3936 21.712 20.2163 21.3217C20.0631 20.917 20.0107 20.565 20.0098 20.0804C20.0096 20.0058 20.0093 19.9311 20.0091 19.8542C20.0091 19.7731 20.009 19.6919 20.009 19.6084C20.0088 19.5223 20.0086 19.4362 20.0084 19.3476C20.0079 19.112 20.0076 18.8765 20.0074 18.6409C20.0073 18.4935 20.0071 18.3461 20.0069 18.1987C20.0064 17.7368 20.006 17.2749 20.0058 16.8129C20.0057 16.2811 20.005 15.7492 20.0038 15.2173C20.0029 14.8053 20.0025 14.3933 20.0025 13.9812C20.0024 13.7356 20.0022 13.4899 20.0015 13.2442C20.0008 12.9699 20.0009 12.6955 20.0011 12.4211C20.0008 12.3405 20.0004 12.26 20 12.177C20.002 11.4885 20.0664 10.943 20.3363 10.4351C20.6758 9.91188 21.0898 9.89083 21.4883 10.2108Z" fill="white"/>
<path d="M26.5798 4.31815C26.783 4.6177 26.911 4.89005 26.9786 5.3429C26.9908 5.62815 26.9899 5.9128 26.9895 6.19872C26.9897 6.28567 26.9898 6.37263 26.99 6.46221C26.9905 6.70305 26.9905 6.94387 26.9904 7.18471C26.9904 7.44466 26.9909 7.7046 26.9912 7.96455C26.9919 8.47363 26.9921 8.98272 26.9922 9.49181C26.9922 9.90568 26.9924 10.3196 26.9927 10.7334C26.9934 11.9072 26.9938 13.0809 26.9937 14.2547C26.9937 14.318 26.9937 14.3812 26.9937 14.4464C26.9937 14.5097 26.9937 14.5731 26.9937 14.6383C26.9936 15.6648 26.9944 16.6912 26.9956 17.7176C26.9967 18.7719 26.9973 19.8261 26.9972 20.8804C26.9972 21.4722 26.9974 22.0639 26.9983 22.6557C26.999 23.1595 26.9992 23.6633 26.9987 24.1671C26.9984 24.4241 26.9984 24.681 26.9991 24.938C26.9999 25.2168 26.9994 25.4956 26.9987 25.7745C26.9991 25.8553 26.9996 25.9361 27 26.0193C26.9971 26.5993 26.9364 27.0379 26.7213 27.4909C26.449 27.8748 26.2316 28.0183 25.8783 27.9981C25.5935 27.9235 25.3736 27.7428 25.1855 27.363C25.009 26.8749 24.9993 26.4032 25.0018 25.8406C25.0015 25.7529 25.0013 25.6651 25.001 25.5747C25.0005 25.3326 25.0007 25.0905 25.0012 24.8484C25.0015 24.5867 25.001 24.3251 25.0005 24.0634C24.9998 23.5514 25 23.0394 25.0004 22.5274C25.0008 22.1112 25.0008 21.695 25.0007 21.2788C25.0006 21.2195 25.0006 21.1602 25.0006 21.0991C25.0005 20.9786 25.0005 20.8582 25.0004 20.7377C25 19.6089 25.0005 18.48 25.0014 17.3512C25.0021 16.3831 25.002 15.4149 25.0012 14.4468C25.0004 13.3218 25 12.1968 25.0005 11.0718C25.0006 10.9518 25.0006 10.8318 25.0007 10.7118C25.0007 10.6528 25.0007 10.5938 25.0007 10.5329C25.0009 10.1173 25.0006 9.70169 25.0003 9.28607C24.9998 8.77947 24.9999 8.27289 25.0008 7.76629C25.0012 7.50792 25.0014 7.24957 25.0009 6.9912C25.0003 6.71095 25.001 6.43073 25.0018 6.15048C25.0014 6.06907 25.0011 5.98767 25.0007 5.9038C25.0039 5.32814 25.0615 4.96304 25.2797 4.51362C25.6612 3.9605 26.1538 3.7924 26.5798 4.31815Z" fill="white"/>
<path d="M31.6284 13.3462C31.8854 13.7884 31.9815 14.1931 31.9977 14.8399C32.001 15.137 32.0005 15.4336 31.9979 15.7307C31.9959 15.9615 31.9962 16.1921 31.9967 16.423C31.9963 16.5714 31.9957 16.7199 31.995 16.8683C31.9951 16.9705 31.9951 16.9705 31.9952 17.0747C31.9883 17.6582 31.9101 18.1593 31.6811 18.5772C31.4526 18.9006 31.1948 19.0275 30.9092 18.9951C30.6049 18.9113 30.3962 18.6898 30.1961 18.2614C30.0398 17.7872 30.0018 17.3508 30.0028 16.8076C30.0026 16.7435 30.0024 16.6794 30.0022 16.6134C30.0019 16.4787 30.002 16.344 30.0023 16.2092C30.0027 16.0051 30.0015 15.8011 30.0002 15.597C29.9984 14.776 30 14.0611 30.3302 13.4451C30.7423 12.8482 31.1885 12.8889 31.6284 13.3462Z" fill="white"/>
</svg>
