<svg width="151" height="150" viewBox="0 0 151 150" fill="none" xmlns="http://www.w3.org/2000/svg">
<g opacity="0.3">
<path fill-rule="evenodd" clip-rule="evenodd" d="M143.273 72.5219H112.197V40.8507C112.197 29.8432 124.024 16.8092 134.621 16.6502L167.998 16.0939V47.7651C167.998 60.2428 154.306 72.5219 143.273 72.5219ZM96.084 37.9498V87.5031H146.725C154.98 87.5031 165.696 80.3502 171.054 74.9856C177.483 68.5481 183 59.1699 183 49.5136V8.62315C183 4.8083 182.405 3.6559 182.405 0L136.367 0.556332C122.754 0.556332 113.507 5.68253 105.212 16.0144C101.759 20.3459 96.084 30.5188 96.084 37.9895V37.9498Z" fill="white"/>
<path fill-rule="evenodd" clip-rule="evenodd" d="M14.9622 164.714V134.752C14.9622 122.592 27.9004 109.995 39.132 109.995H70.7631V142.262C70.7631 150.567 62.4684 161.456 52.5861 164.953C45.8392 167.377 27.1463 164.913 18.0182 166.184C16.3116 166.423 14.9622 166.82 14.9622 164.714ZM0 131.891V182H49.4905C67.9056 182 86.8763 161.018 86.8763 143.415V95.0137H35.6792C28.6148 95.0137 19.4469 100.577 14.2479 105.226C13.0572 106.26 12.7794 106.339 11.6682 107.253C6.31034 111.783 0 124.579 0 131.851V131.891Z" fill="white"/>
<path fill-rule="evenodd" clip-rule="evenodd" d="M27.6223 54.6388V27.5772C46.1168 27.5772 60.6028 22.6497 70.8025 37.9488C71.6756 39.2602 73.66 42.7968 73.66 44.8632V73.6733H47.7837C39.1318 73.6733 27.662 63.5003 27.662 54.6785L27.6223 54.6388ZM13.811 14.9008L14.3667 52.93C14.327 64.0964 18.3354 72.7593 27.1064 79.3558C31.0752 82.3361 38.8539 86.906 45.4421 86.906H86.2807V43.1147C86.2807 39.737 83.5422 34.4916 82.2325 32.1868C77.0335 23.1265 64.9684 14.3047 54.6496 14.3047C40.4415 14.3047 28.0986 14.861 13.811 14.861V14.9008Z" fill="white"/>
<path fill-rule="evenodd" clip-rule="evenodd" d="M108.744 134.155V108.802H135.772C143.352 108.802 155.338 117.981 155.338 128.949V154.858H143.272C132.438 154.858 127.12 156.885 119.301 151.759C114.459 148.58 108.744 141.784 108.744 134.115V134.155ZM96.6792 139.321C96.6792 148.897 108.427 162.289 120.77 166.462C128.271 169.005 134.7 167.535 143.868 167.535C147.162 167.535 167.839 168.449 168.911 166.7L168.593 129.505C168.593 123.584 168.474 122.154 166.966 117.902C162.759 106.259 148.948 95.5293 138.113 95.5293H96.6792V139.321Z" fill="white"/>
</g>
</svg>
