<svg width="40" height="40" viewBox="0 0 40 40" fill="none" xmlns="http://www.w3.org/2000/svg">
<path d="M19.104 31V14.92C19.088 14.936 18.904 14.984 18.552 15.064C18.216 15.144 17.832 15.224 17.4 15.304C16.968 15.384 16.584 15.456 16.248 15.52C15.912 15.584 15.736 15.616 15.72 15.616V13.672C15.992 13.608 16.304 13.52 16.656 13.408C17.024 13.296 17.392 13.16 17.76 13C18.144 12.84 18.504 12.64 18.84 12.4C19.192 12.16 19.488 11.88 19.728 11.56H21.672V31H19.104Z" fill="white"/>
<circle cx="20" cy="20" r="19.5" stroke="white"/>
</svg>
