<svg width="40" height="40" viewBox="0 0 40 40" fill="none" xmlns="http://www.w3.org/2000/svg">
<path d="M19.832 31.192C18.664 31.192 17.736 30.968 17.048 30.52C16.36 30.072 15.864 29.424 15.56 28.576C15.272 27.728 15.128 26.72 15.128 25.552H17.696C17.696 26.128 17.744 26.696 17.84 27.256C17.936 27.8 18.136 28.256 18.44 28.624C18.76 28.976 19.24 29.152 19.88 29.152C20.584 29.152 21.088 28.952 21.392 28.552C21.696 28.136 21.888 27.584 21.968 26.896C22.048 26.192 22.088 25.4 22.088 24.52C22.088 23.64 22.04 22.896 21.944 22.288C21.848 21.664 21.648 21.192 21.344 20.872C21.04 20.536 20.56 20.368 19.904 20.368C19.376 20.368 18.928 20.536 18.56 20.872C18.192 21.192 17.92 21.56 17.744 21.976H15.56V11.56H23.936V14.128H17.888L17.72 19.504C18.04 19.168 18.432 18.904 18.896 18.712C19.376 18.52 19.92 18.424 20.528 18.424C21.584 18.424 22.408 18.672 23 19.168C23.608 19.664 24.032 20.344 24.272 21.208C24.528 22.072 24.656 23.064 24.656 24.184C24.656 25.176 24.584 26.104 24.44 26.968C24.296 27.816 24.04 28.56 23.672 29.2C23.32 29.824 22.832 30.312 22.208 30.664C21.584 31.016 20.792 31.192 19.832 31.192Z" fill="white"/>
<circle cx="20" cy="20" r="19.5" stroke="white"/>
</svg>
