<svg width="40" height="40" viewBox="0 0 40 40" fill="none" xmlns="http://www.w3.org/2000/svg">
<path d="M14.984 31V29.176L19.928 21.472C20.296 20.896 20.632 20.36 20.936 19.864C21.256 19.368 21.512 18.848 21.704 18.304C21.912 17.744 22.016 17.104 22.016 16.384C22.016 15.488 21.872 14.784 21.584 14.272C21.296 13.76 20.792 13.504 20.072 13.504C19.464 13.504 18.992 13.672 18.656 14.008C18.32 14.344 18.088 14.784 17.96 15.328C17.832 15.872 17.768 16.456 17.768 17.08V17.728H15.2V17.056C15.2 15.888 15.352 14.888 15.656 14.056C15.976 13.208 16.48 12.552 17.168 12.088C17.872 11.624 18.8 11.392 19.952 11.392C21.52 11.392 22.688 11.84 23.456 12.736C24.224 13.616 24.608 14.84 24.608 16.408C24.608 17.24 24.504 17.968 24.296 18.592C24.104 19.216 23.848 19.8 23.528 20.344C23.208 20.888 22.856 21.448 22.472 22.024L18.008 28.84H24.152V31H14.984Z" fill="white"/>
<circle cx="20" cy="20" r="19.5" stroke="white"/>
</svg>
