<svg width="40" height="40" viewBox="0 0 40 40" fill="none" xmlns="http://www.w3.org/2000/svg">
<path d="M19.712 31.216C18.656 31.216 17.776 31.016 17.072 30.616C16.368 30.216 15.84 29.64 15.488 28.888C15.136 28.136 14.96 27.248 14.96 26.224V25.576H17.504C17.504 25.64 17.504 25.712 17.504 25.792C17.504 25.856 17.504 25.928 17.504 26.008C17.52 26.584 17.584 27.104 17.696 27.568C17.824 28.032 18.04 28.4 18.344 28.672C18.664 28.944 19.12 29.08 19.712 29.08C20.336 29.08 20.808 28.936 21.128 28.648C21.448 28.344 21.664 27.92 21.776 27.376C21.888 26.832 21.944 26.208 21.944 25.504C21.944 24.48 21.752 23.648 21.368 23.008C21 22.352 20.344 21.992 19.4 21.928C19.352 21.912 19.288 21.904 19.208 21.904C19.144 21.904 19.088 21.904 19.04 21.904V19.336C19.088 19.336 19.144 19.336 19.208 19.336C19.272 19.336 19.328 19.336 19.376 19.336C20.288 19.304 20.944 19.064 21.344 18.616C21.744 18.168 21.944 17.424 21.944 16.384C21.944 15.504 21.792 14.8 21.488 14.272C21.2 13.744 20.616 13.48 19.736 13.48C18.856 13.48 18.272 13.776 17.984 14.368C17.696 14.944 17.536 15.688 17.504 16.6C17.504 16.664 17.504 16.736 17.504 16.816C17.504 16.88 17.504 16.944 17.504 17.008H14.96V16.36C14.96 15.32 15.136 14.432 15.488 13.696C15.84 12.96 16.368 12.392 17.072 11.992C17.792 11.592 18.68 11.392 19.736 11.392C20.808 11.392 21.696 11.592 22.4 11.992C23.104 12.392 23.632 12.968 23.984 13.72C24.336 14.456 24.512 15.344 24.512 16.384C24.512 17.552 24.256 18.488 23.744 19.192C23.248 19.896 22.576 20.376 21.728 20.632C22.32 20.808 22.816 21.112 23.216 21.544C23.632 21.976 23.952 22.528 24.176 23.2C24.4 23.856 24.512 24.624 24.512 25.504C24.512 26.656 24.352 27.664 24.032 28.528C23.712 29.376 23.2 30.04 22.496 30.52C21.792 30.984 20.864 31.216 19.712 31.216Z" fill="white"/>
<circle cx="20" cy="20" r="19.5" stroke="white"/>
</svg>
